<svg xmlns="http://www.w3.org/2000/svg" version="1.1" xmlns:xlink="http://www.w3.org/1999/xlink" xmlns:svgjs="http://svgjs.dev/svgjs" width="128" height="128" viewBox="0 0 128 128"><g transform="matrix(0.8046875,0,0,0.8046875,12.333870967741937,12.333870967741937)"><svg viewBox="0 0 155 155" data-background-color="#ffffff" preserveAspectRatio="xMidYMid meet" height="128" width="128" xmlns="http://www.w3.org/2000/svg" xmlns:xlink="http://www.w3.org/1999/xlink"><g id="tight-bounds" transform="matrix(1,0,0,1,0.25,0.25)"><svg viewBox="0 0 154.5 154.5" height="154.5" width="154.5"><g><svg></svg></g><g><svg viewBox="0 0 154.5 154.5" height="154.5" width="154.5"><g transform="matrix(1,0,0,1,63.487427138331576,60.540825)"><svg viewBox="0 0 27.525145723336852 33.41835" height="33.41835" width="27.525145723336852"><g><svg viewBox="0 0 27.525145723336852 33.41835" height="33.41835" width="27.525145723336852"><g><svg viewBox="0 0 27.525145723336852 33.41835" height="33.41835" width="27.525145723336852"><g id="textblocktransform"><svg viewBox="0 0 27.525145723336852 33.41835" height="33.41835" width="27.525145723336852" id="textblock"><g><svg viewBox="0 0 27.525145723336852 33.41835" height="33.41835" width="27.525145723336852"><g transform="matrix(1,0,0,1,0,0)"><svg width="27.525145723336852" viewBox="-7.7 -40 40 48.35000000000001" height="33.41835" data-palette-color="#a73b75"><path d="M19.85 4.35L19.85 4.35Q18.05 4.35 15.88 3.6 13.7 2.85 11.4 1.78 9.1 0.7 6.85-0.3L6.85-0.3Q5.6 1.1 4.25 1.88 2.9 2.65 1.3 2.65L1.3 2.65Q-0.3 2.65-1.43 1.9-2.55 1.15-3.13 0.13-3.7-0.9-3.7-1.7L-3.7-1.7Q-3.7-2.6-2.88-3.25-2.05-3.9-0.05-3.9L-0.05-3.9Q1.25-3.9 2.83-3.6 4.4-3.3 6.1-2.85L6.1-2.85Q7.3-4.95 8.33-7.75 9.35-10.55 10.35-13.7 11.35-16.85 12.35-20L12.35-20Q10.05-20.75 8.72-22.2 7.4-23.65 7.4-25.35L7.4-25.35Q7.4-26.25 7.78-27.15 8.15-28.05 8.85-28.68 9.55-29.3 10.5-29.3L10.5-29.3Q10.15-28.8 10-27.85 9.85-26.9 9.85-26.2L9.85-26.2Q9.85-24.3 10.65-23.03 11.45-21.75 12.7-21.05L12.7-21.05Q13.7-24.05 14.78-26.73 15.85-29.4 17.15-31.5 18.45-33.6 20-34.8 21.55-36 23.45-36L23.45-36Q24.45-36 25.58-35.55 26.7-35.1 27.5-34 28.3-32.9 28.3-30.9L28.3-30.9Q28.3-29.2 27.6-27.23 26.9-25.25 25.45-23.48 24-21.7 21.75-20.58 19.5-19.45 16.45-19.4L16.45-19.4Q16.4-19.4 16.23-19.4 16.05-19.4 15.5-19.4L15.5-19.4Q14.5-16.35 13.38-13.2 12.25-10.05 11-7.23 9.75-4.4 8.3-2.2L8.3-2.2Q10.6-1.5 12.95-0.78 15.3-0.05 17.5 0.43 19.7 0.9 21.55 0.9L21.55 0.9Q22.6 0.9 23.45 0.7 24.3 0.5 25.1 0.1L25.1 0.1Q24.3 2.4 22.98 3.38 21.65 4.35 19.85 4.35ZM1.1 1.2L1.1 1.2Q2.2 1.2 3.18 0.6 4.15 0 4.95-1.1L4.95-1.1Q3.4-1.75 1.93-2.18 0.45-2.6-0.75-2.6L-0.75-2.6Q-1.7-2.6-2.05-2.35-2.4-2.1-2.4-1.65L-2.4-1.65Q-2.4-0.8-1.43 0.2-0.45 1.2 1.1 1.2ZM15.8-20.35L15.8-20.35Q18.05-20.35 19.88-21.63 21.7-22.9 22.98-24.83 24.25-26.75 24.93-28.75 25.6-30.75 25.6-32.25L25.6-32.25Q25.6-33.7 25.05-34.23 24.5-34.75 23.8-34.75L23.8-34.75Q22.25-34.75 20.9-32.75 19.55-30.75 18.32-27.48 17.1-24.2 15.8-20.35Z" opacity="1" transform="matrix(1,0,0,1,0,0)" fill="#a73b75" class="undefined-text-0" data-fill-palette-color="primary" id="text-0"></path></svg></g></svg></g></svg></g></svg></g><g></g></svg></g></svg></g><g mask="url(#ca1cc0e0-0a24-4ca4-b8fa-00e73753cd8f)"><g transform="matrix(1.5953320494918368, 0, 0, 1.5953320494918368, 1, 3.603352128106394)"><svg xmlns="http://www.w3.org/2000/svg" xmlns:xlink="http://www.w3.org/1999/xlink" version="1.1" x="0" y="0" viewBox="2.203896421205796 3.8362905445352076 95.59138490860008 92.3276729698402" enable-background="new 0 0 100 100" xml:space="preserve" height="92.3276729698402" width="95.59138490860008" class="icon-none" data-fill-palette-color="accent" id="none"><path d="M97.526 49.638c-10.243-8.856-20.976-10.341-33.854-8.693 5.19-7.279 8.958-16.035 5.383-25.22-1.337-3.426-2.888-6.921-5.644-9.493 0 0-2.521-2.356-2.524-2.359-0.566-0.527-7.342 4.785-8.031 5.368-2.619 2.231-4.889 4.855-6.778 7.728-2.892 4.393-4.021 8.561-4.949 13.596-3.411-4.181-5.991-8.365-11.068-10.776-9.783-4.645-18.632-3.302-27.613 2.042-1.672 0.997 5.754 14.164 6.839 15.493 3.463 4.241 8.714 7.605 13.739 9.713 0 0 4.148 1.622 4.203 1.644-2.041-0.8-8.167 2.475-9.913 3.437-4.455 2.46-9.193 7.98-11.014 12.697-0.637 1.651-2.523 16.359-0.334 16.656 3.04 0.411 5.759 0.876 8.87 0.508 7.949-0.945 14.296-3.292 19.911-9.048 0 0 2.91-2.98 2.918-2.987-0.645 0.66 1.532 8.595 1.793 9.595 1.198 4.562 6.208 10.317 10.074 12.852 4.521 2.964 9.981 3.417 15.231 3.772 2.074 0.141 2.914-15.238 2.808-16.774-0.395-5.52-2.426-9.832-5.126-14.527 0.681 1.188 6.754 1.876 8.112 2.073 2.641 0.383 5.298 0.368 7.899-0.276 4.688-1.166 11.096-5.942 14.665-9.204C93.836 56.804 99.021 50.935 97.526 49.638zM80.962 58.212c-2.893 2.55-7.06 4.525-10.855 5.232-2.088 0.389-7.466-0.034-10.689-1.549 2.781 5.01 2.194 10.754 1.218 16.371-0.116 0.66-1.415 6.34-2.494 6.248-6.061-0.517-11.73-3.873-15.32-8.772-1.181-1.611-3.835-9.045-3.606-11.625-6.339 7.568-22.95 8.551-23.663 7.14-1.587-3.136 3.306-12.608 3.914-13.506 1.511-2.235 3.416-4.174 5.62-5.729 0.959-0.678 5.661-4.019 6.797-3.542-6.688-2.799-12.815-6.013-15.781-13.121-0.361-0.863-2.657-8.04-1.589-8.663 6.191-3.542 11.779-3.431 18.118-0.287 3.967 1.965 6.834 5.58 9.461 8.918 0.943-4.674 3.304-9.332 6.703-12.832 1.353-1.391 10.213-6.908 12.091-5.1 2.631 2.537 4.092 8.861 3.903 12.366-0.235 4.425-2.224 10.135-4.821 13.648 10.166-1.127 17.819-0.051 25.767 7.058C86.962 51.568 81.647 57.607 80.962 58.212z" fill="#fcb4de" data-fill-palette-color="accent"></path></svg></g></g><mask id="ca1cc0e0-0a24-4ca4-b8fa-00e73753cd8f"><rect width="250" height="250" fill="white"></rect><g transform="matrix(1,0,0,1,63.487427138331576,60.540825)"><svg viewBox="0 0 27.525145723336852 33.41835" height="33.41835" width="27.525145723336852"><g><svg viewBox="0 0 27.525145723336852 33.41835" height="33.41835" width="27.525145723336852"><g><svg viewBox="0 0 27.525145723336852 33.41835" height="33.41835" width="27.525145723336852"><g id="SvgjsG1009"><svg viewBox="0 0 27.525145723336852 33.41835" height="33.41835" width="27.525145723336852" id="SvgjsSvg1008"><g><svg viewBox="0 0 27.525145723336852 33.41835" height="33.41835" width="27.525145723336852"><g transform="matrix(1,0,0,1,0,0)"><svg width="27.525145723336852" viewBox="-7.7 -40 40 48.35000000000001" height="33.41835" data-palette-color="#a73b75"><path d="M19.85 4.35L19.85 4.35Q18.05 4.35 15.88 3.6 13.7 2.85 11.4 1.78 9.1 0.7 6.85-0.3L6.85-0.3Q5.6 1.1 4.25 1.88 2.9 2.65 1.3 2.65L1.3 2.65Q-0.3 2.65-1.43 1.9-2.55 1.15-3.13 0.13-3.7-0.9-3.7-1.7L-3.7-1.7Q-3.7-2.6-2.88-3.25-2.05-3.9-0.05-3.9L-0.05-3.9Q1.25-3.9 2.83-3.6 4.4-3.3 6.1-2.85L6.1-2.85Q7.3-4.95 8.33-7.75 9.35-10.55 10.35-13.7 11.35-16.85 12.35-20L12.35-20Q10.05-20.75 8.72-22.2 7.4-23.65 7.4-25.35L7.4-25.35Q7.4-26.25 7.78-27.15 8.15-28.05 8.85-28.68 9.55-29.3 10.5-29.3L10.5-29.3Q10.15-28.8 10-27.85 9.85-26.9 9.85-26.2L9.85-26.2Q9.85-24.3 10.65-23.03 11.45-21.75 12.7-21.05L12.7-21.05Q13.7-24.05 14.78-26.73 15.85-29.4 17.15-31.5 18.45-33.6 20-34.8 21.55-36 23.45-36L23.45-36Q24.45-36 25.58-35.55 26.7-35.1 27.5-34 28.3-32.9 28.3-30.9L28.3-30.9Q28.3-29.2 27.6-27.23 26.9-25.25 25.45-23.48 24-21.7 21.75-20.58 19.5-19.45 16.45-19.4L16.45-19.4Q16.4-19.4 16.23-19.4 16.05-19.4 15.5-19.4L15.5-19.4Q14.5-16.35 13.38-13.2 12.25-10.05 11-7.23 9.75-4.4 8.3-2.2L8.3-2.2Q10.6-1.5 12.95-0.78 15.3-0.05 17.5 0.43 19.7 0.9 21.55 0.9L21.55 0.9Q22.6 0.9 23.45 0.7 24.3 0.5 25.1 0.1L25.1 0.1Q24.3 2.4 22.98 3.38 21.65 4.35 19.85 4.35ZM1.1 1.2L1.1 1.2Q2.2 1.2 3.18 0.6 4.15 0 4.95-1.1L4.95-1.1Q3.4-1.75 1.93-2.18 0.45-2.6-0.75-2.6L-0.75-2.6Q-1.7-2.6-2.05-2.35-2.4-2.1-2.4-1.65L-2.4-1.65Q-2.4-0.8-1.43 0.2-0.45 1.2 1.1 1.2ZM15.8-20.35L15.8-20.35Q18.05-20.35 19.88-21.63 21.7-22.9 22.98-24.83 24.25-26.75 24.93-28.75 25.6-30.75 25.6-32.25L25.6-32.25Q25.6-33.7 25.05-34.23 24.5-34.75 23.8-34.75L23.8-34.75Q22.25-34.75 20.9-32.75 19.55-30.75 18.32-27.48 17.1-24.2 15.8-20.35Z" opacity="1" transform="matrix(1,0,0,1,0,0)" fill="#a73b75" class="undefined-text-0" data-fill-palette-color="primary" id="SvgjsPath1007" stroke-width="7" stroke="black" stroke-linejoin="round"></path></svg></g></svg></g></svg></g></svg></g><g></g></svg></g></svg></g></mask></svg></g><defs></defs></svg><rect width="154.5" height="154.5" fill="none" stroke="none" visibility="hidden"></rect></g></svg></g></svg>