<svg width="158" height="158" viewBox="0 0 158 158" fill="none" xmlns="http://www.w3.org/2000/svg">
<g filter="url(#filter0_d)">
<circle cx="79" cy="75" r="75" fill="url(#paint0_linear)"/>
</g>
<path d="M78.4906 55.2589C67.8428 55.2589 59.2495 63.8522 59.2495 74.5C59.2495 85.1478 67.8428 93.7411 78.4906 93.7411C89.1384 93.7411 97.7317 85.1478 97.7317 74.5C97.7317 63.8522 89.1384 55.2589 78.4906 55.2589ZM78.4906 87.0053C71.6047 87.0053 65.9853 81.3859 65.9853 74.5C65.9853 67.6141 71.6047 61.9947 78.4906 61.9947C85.3765 61.9947 90.9959 67.6141 90.9959 74.5C90.9959 81.3859 85.3765 87.0053 78.4906 87.0053ZM98.5198 49.9866C96.0337 49.9866 94.0261 51.9942 94.0261 54.4802C94.0261 56.9663 96.0337 58.9739 98.5198 58.9739C101.006 58.9739 103.013 56.9757 103.013 54.4802C103.014 53.8899 102.898 53.3052 102.673 52.7597C102.447 52.2142 102.116 51.7185 101.699 51.3011C101.282 50.8837 100.786 50.5527 100.24 50.3271C99.6948 50.1015 99.1101 49.9858 98.5198 49.9866ZM115.997 74.5C115.997 69.3215 116.044 64.1899 115.753 59.0208C115.462 53.0167 114.093 47.6881 109.702 43.2977C105.302 38.8978 99.9833 37.5375 93.9792 37.2467C88.8007 36.9559 83.6691 37.0028 78.5 37.0028C73.3215 37.0028 68.1899 36.9559 63.0208 37.2467C57.0167 37.5375 51.6881 38.9072 47.2977 43.2977C42.8978 47.6975 41.5375 53.0167 41.2467 59.0208C40.9559 64.1993 41.0028 69.3309 41.0028 74.5C41.0028 79.6691 40.9559 84.8101 41.2467 89.9792C41.5375 95.9833 42.9072 101.312 47.2977 105.702C51.6975 110.102 57.0167 111.462 63.0208 111.753C68.1993 112.044 73.3309 111.997 78.5 111.997C83.6785 111.997 88.8101 112.044 93.9792 111.753C99.9833 111.462 105.312 110.093 109.702 105.702C114.102 101.302 115.462 95.9833 115.753 89.9792C116.053 84.8101 115.997 79.6785 115.997 74.5ZM107.742 96.6212C107.057 98.3286 106.231 99.6045 104.908 100.918C103.586 102.241 102.319 103.066 100.612 103.751C95.6772 105.712 83.9599 105.271 78.4906 105.271C73.0213 105.271 61.2946 105.712 56.36 103.76C54.6526 103.076 53.3768 102.25 52.0634 100.927C50.7406 99.6045 49.9151 98.338 49.2302 96.6306C47.2789 91.6866 47.7198 79.9693 47.7198 74.5C47.7198 69.0307 47.2789 57.304 49.2302 52.3694C49.9151 50.662 50.7406 49.3862 52.0634 48.0728C53.3862 46.7594 54.6526 45.9244 56.36 45.2396C61.2946 43.2883 73.0213 43.7292 78.4906 43.7292C83.9599 43.7292 95.6866 43.2883 100.621 45.2396C102.329 45.9244 103.604 46.75 104.918 48.0728C106.241 49.3955 107.066 50.662 107.751 52.3694C109.702 57.304 109.261 69.0307 109.261 74.5C109.261 79.9693 109.702 91.6866 107.742 96.6212Z" fill="#463D42"/>
<defs>
<filter id="filter0_d" x="0" y="0" width="158" height="158" filterUnits="userSpaceOnUse" color-interpolation-filters="sRGB">
<feFlood flood-opacity="0" result="BackgroundImageFix"/>
<feColorMatrix in="SourceAlpha" type="matrix" values="0 0 0 0 0 0 0 0 0 0 0 0 0 0 0 0 0 0 127 0"/>
<feOffset dy="4"/>
<feGaussianBlur stdDeviation="2"/>
<feColorMatrix type="matrix" values="0 0 0 0 0 0 0 0 0 0 0 0 0 0 0 0 0 0 0.43 0"/>
<feBlend mode="normal" in2="BackgroundImageFix" result="effect1_dropShadow"/>
<feBlend mode="normal" in="SourceGraphic" in2="effect1_dropShadow" result="shape"/>
</filter>
<linearGradient id="paint0_linear" x1="24.5" y1="24.5" x2="126" y2="121" gradientUnits="userSpaceOnUse">
<stop stop-color="#E2EFF9"/>
<stop offset="1" stop-color="#FAE9F3"/>
</linearGradient>
</defs>
</svg>
