<svg width="158" height="158" viewBox="0 0 158 158" fill="none" xmlns="http://www.w3.org/2000/svg">
<g filter="url(#filter0_d)">
<circle cx="79" cy="75" r="75" fill="url(#paint0_linear)"/>
</g>
<path d="M104.891 100.916H93.7977V83.5094C93.7977 79.3586 93.7109 74.0242 87.9969 74.0242C82.2125 74.0242 81.3312 78.5266 81.3312 83.2023V100.914H70.2242V65.1227H80.893V70.0047H81.0359C82.5266 67.1852 86.1523 64.2203 91.5617 64.2203C102.814 64.2203 104.902 71.6289 104.902 81.2617V100.914L104.891 100.916ZM57.6758 60.2312C56.828 60.2316 55.9885 60.0646 55.2053 59.74C54.4221 59.4153 53.7107 58.9393 53.1118 58.3393C52.5128 57.7393 52.0382 57.027 51.7149 56.2432C51.3917 55.4595 51.2263 54.6197 51.2281 53.7719C51.2295 52.4958 51.6092 51.2488 52.3193 50.1886C53.0293 49.1283 54.0378 48.3024 55.2172 47.8153C56.3966 47.3281 57.694 47.2016 58.9453 47.4517C60.1966 47.7019 61.3456 48.3174 62.2471 49.2206C63.1486 50.1237 63.762 51.2738 64.0099 52.5256C64.2578 53.7773 64.1289 55.0745 63.6396 56.253C63.1503 57.4315 62.3226 58.4385 61.2611 59.1466C60.1995 59.8547 58.9518 60.2322 57.6758 60.2312ZM63.2398 100.916H52.1094V65.125H63.2398V100.916ZM110.459 37H46.5312C43.4773 37 41 39.4164 41 42.407V106.595C41 109.586 43.4773 112.002 46.5312 112.002H110.448C113.497 112.002 116 109.586 116 106.595V42.407C116 39.4164 113.497 37 110.448 37H110.459Z" fill="#463D42"/>
<defs>
<filter id="filter0_d" x="0" y="0" width="158" height="158" filterUnits="userSpaceOnUse" color-interpolation-filters="sRGB">
<feFlood flood-opacity="0" result="BackgroundImageFix"/>
<feColorMatrix in="SourceAlpha" type="matrix" values="0 0 0 0 0 0 0 0 0 0 0 0 0 0 0 0 0 0 127 0"/>
<feOffset dy="4"/>
<feGaussianBlur stdDeviation="2"/>
<feColorMatrix type="matrix" values="0 0 0 0 0 0 0 0 0 0 0 0 0 0 0 0 0 0 0.43 0"/>
<feBlend mode="normal" in2="BackgroundImageFix" result="effect1_dropShadow"/>
<feBlend mode="normal" in="SourceGraphic" in2="effect1_dropShadow" result="shape"/>
</filter>
<linearGradient id="paint0_linear" x1="24.5" y1="24.5" x2="126" y2="121" gradientUnits="userSpaceOnUse">
<stop stop-color="#E2EFF9"/>
<stop offset="1" stop-color="#FAE9F3"/>
</linearGradient>
</defs>
</svg>
