<svg width="158" height="158" viewBox="0 0 158 158" fill="none" xmlns="http://www.w3.org/2000/svg">
<g filter="url(#filter0_d)">
<circle cx="79" cy="75" r="75" fill="url(#paint0_linear)"/>
</g>
<path d="M105.512 82.05L82.75 104.775V112.5H90.475L113.2 89.7375L105.512 82.05ZM119.125 80.925L114.325 76.125C114.145 75.9258 113.925 75.7662 113.68 75.6565C113.434 75.5467 113.169 75.4892 112.9 75.4875C112.338 75.525 111.812 75.7125 111.438 76.125L107.688 79.875L115.375 87.375L119.125 83.625C119.838 82.875 119.838 81.675 119.125 80.925ZM75.25 97.5H49V60L79 78.75L109 60V67.5H116.5V52.5C116.5 48.375 113.125 45 109 45H49C44.875 45 41.5 48.375 41.5 52.5V97.5C41.5 101.625 44.875 105 49 105H75.25V97.5ZM109 52.5L79 71.25L49 52.5H109Z" fill="#463D42"/>
<defs>
<filter id="filter0_d" x="0" y="0" width="158" height="158" filterUnits="userSpaceOnUse" color-interpolation-filters="sRGB">
<feFlood flood-opacity="0" result="BackgroundImageFix"/>
<feColorMatrix in="SourceAlpha" type="matrix" values="0 0 0 0 0 0 0 0 0 0 0 0 0 0 0 0 0 0 127 0"/>
<feOffset dy="4"/>
<feGaussianBlur stdDeviation="2"/>
<feColorMatrix type="matrix" values="0 0 0 0 0 0 0 0 0 0 0 0 0 0 0 0 0 0 0.43 0"/>
<feBlend mode="normal" in2="BackgroundImageFix" result="effect1_dropShadow"/>
<feBlend mode="normal" in="SourceGraphic" in2="effect1_dropShadow" result="shape"/>
</filter>
<linearGradient id="paint0_linear" x1="24.5" y1="24.5" x2="126" y2="121" gradientUnits="userSpaceOnUse">
<stop stop-color="#E2EFF9"/>
<stop offset="1" stop-color="#FAE9F3"/>
</linearGradient>
</defs>
</svg>
