{
	"asset":{
		"generator":"Khronos glTF Blender I/O v3.5.30",
		"version":"2.0"
	},
	"scene":0,
	"scenes":[
		{
			"name":"Scene",
			"nodes":[
				0,
				1,
				2,
				3,
				4
			]
		}
	],
	"nodes":[
		{
			"mesh":0,
			"name":"Cube"
		},
		{
			"mesh":1,
			"name":"Cube.001",
			"rotation":[
				0,
				-0.9499720335006714,
				0,
				0.31233495473861694
			]
		},
		{
			"mesh":2,
			"name":"Cube.002",
			"rotation":[
				0,
				-0.5735764503479004,
				0,
				0.8191520571708679
			]
		},
		{
			"mesh":3,
			"name":"Cube.003",
			"rotation":[
				0,
				0.8100417256355286,
				0,
				0.5863723158836365
			]
		},
		{
			"mesh":4,
			"name":"Cube.004",
			"rotation":[
				0,
				0.2890317738056183,
				0,
				0.9573195576667786
			]
		}
	],
	"animations":[
		{
			"channels":[
				{
					"sampler":0,
					"target":{
						"node":1,
						"path":"translation"
					}
				},
				{
					"sampler":1,
					"target":{
						"node":1,
						"path":"rotation"
					}
				},
				{
					"sampler":2,
					"target":{
						"node":1,
						"path":"scale"
					}
				}
			],
			"name":"Cube.001",
			"samplers":[
				{
					"input":39,
					"interpolation":"LINEAR",
					"output":40
				},
				{
					"input":39,
					"interpolation":"LINEAR",
					"output":41
				},
				{
					"input":39,
					"interpolation":"LINEAR",
					"output":42
				}
			]
		},
		{
			"channels":[
				{
					"sampler":0,
					"target":{
						"node":2,
						"path":"translation"
					}
				},
				{
					"sampler":1,
					"target":{
						"node":2,
						"path":"rotation"
					}
				},
				{
					"sampler":2,
					"target":{
						"node":2,
						"path":"scale"
					}
				}
			],
			"name":"Cube.002",
			"samplers":[
				{
					"input":39,
					"interpolation":"LINEAR",
					"output":43
				},
				{
					"input":39,
					"interpolation":"LINEAR",
					"output":44
				},
				{
					"input":39,
					"interpolation":"LINEAR",
					"output":45
				}
			]
		},
		{
			"channels":[
				{
					"sampler":0,
					"target":{
						"node":3,
						"path":"translation"
					}
				},
				{
					"sampler":1,
					"target":{
						"node":3,
						"path":"rotation"
					}
				},
				{
					"sampler":2,
					"target":{
						"node":3,
						"path":"scale"
					}
				}
			],
			"name":"Cube.003",
			"samplers":[
				{
					"input":39,
					"interpolation":"LINEAR",
					"output":46
				},
				{
					"input":39,
					"interpolation":"LINEAR",
					"output":47
				},
				{
					"input":39,
					"interpolation":"LINEAR",
					"output":48
				}
			]
		},
		{
			"channels":[
				{
					"sampler":0,
					"target":{
						"node":4,
						"path":"translation"
					}
				},
				{
					"sampler":1,
					"target":{
						"node":4,
						"path":"rotation"
					}
				},
				{
					"sampler":2,
					"target":{
						"node":4,
						"path":"scale"
					}
				}
			],
			"name":"Cube.004",
			"samplers":[
				{
					"input":39,
					"interpolation":"LINEAR",
					"output":49
				},
				{
					"input":39,
					"interpolation":"LINEAR",
					"output":50
				},
				{
					"input":39,
					"interpolation":"LINEAR",
					"output":51
				}
			]
		}
	],
	"materials":[
		{
			"doubleSided":true,
			"emissiveFactor":[
				0.013701966032385826,
				0.1384315937757492,
				0.018500253558158875
			],
			"name":"Stem",
			"pbrMetallicRoughness":{
				"baseColorFactor":[
					0.008669469505548477,
					0.07657821476459503,
					0.011447046883404255,
					1
				],
				"metallicFactor":0,
				"roughnessFactor":0.5
			}
		},
		{
			"doubleSided":true,
			"emissiveFactor":[
				0.5088813304901123,
				0.22696569561958313,
				0.011612320318818092
			],
			"name":"Center",
			"pbrMetallicRoughness":{
				"baseColorFactor":[
					0.2667580544948578,
					0.12160933762788773,
					0.007430863566696644,
					1
				],
				"metallicFactor":0,
				"roughnessFactor":0.5
			}
		},
		{
			"doubleSided":true,
			"emissiveFactor":[
				1,
				0.93868488073349,
				0.9734452366828918
			],
			"name":"Blossom Leaf Principle",
			"pbrMetallicRoughness":{
				"baseColorFactor":[
					1,
					0.93868488073349,
					0.9734452366828918,
					1
				],
				"metallicFactor":0,
				"roughnessFactor":0.5
			}
		}
	],
	"meshes":[
		{
			"name":"Cube",
			"primitives":[
				{
					"attributes":{
						"POSITION":0,
						"NORMAL":1
					},
					"indices":2,
					"material":0
				},
				{
					"attributes":{
						"POSITION":3,
						"NORMAL":4
					},
					"indices":5,
					"material":1
				},
				{
					"attributes":{
						"POSITION":6,
						"NORMAL":7
					},
					"indices":8,
					"material":2
				}
			]
		},
		{
			"name":"Cube.007",
			"primitives":[
				{
					"attributes":{
						"POSITION":9,
						"NORMAL":10
					},
					"indices":2,
					"material":0
				},
				{
					"attributes":{
						"POSITION":11,
						"NORMAL":12
					},
					"indices":13,
					"material":1
				},
				{
					"attributes":{
						"POSITION":14,
						"NORMAL":15
					},
					"indices":16,
					"material":2
				}
			]
		},
		{
			"name":"Cube.008",
			"primitives":[
				{
					"attributes":{
						"POSITION":17,
						"NORMAL":18
					},
					"indices":2,
					"material":0
				},
				{
					"attributes":{
						"POSITION":19,
						"NORMAL":20
					},
					"indices":5,
					"material":1
				},
				{
					"attributes":{
						"POSITION":21,
						"NORMAL":22
					},
					"indices":23,
					"material":2
				}
			]
		},
		{
			"name":"Cube.015",
			"primitives":[
				{
					"attributes":{
						"POSITION":24,
						"NORMAL":25
					},
					"indices":2,
					"material":0
				},
				{
					"attributes":{
						"POSITION":26,
						"NORMAL":27
					},
					"indices":28,
					"material":1
				},
				{
					"attributes":{
						"POSITION":29,
						"NORMAL":30
					},
					"indices":31,
					"material":2
				}
			]
		},
		{
			"name":"Cube.016",
			"primitives":[
				{
					"attributes":{
						"POSITION":32,
						"NORMAL":33
					},
					"indices":2,
					"material":0
				},
				{
					"attributes":{
						"POSITION":34,
						"NORMAL":35
					},
					"indices":5,
					"material":1
				},
				{
					"attributes":{
						"POSITION":36,
						"NORMAL":37
					},
					"indices":38,
					"material":2
				}
			]
		}
	],
	"accessors":[
		{
			"bufferView":0,
			"componentType":5126,
			"count":70,
			"max":[
				0.0006291684112511575,
				0.09237325191497803,
				0.0399010069668293
			],
			"min":[
				-0.0006983242346905172,
				-3.062636824324727e-05,
				-0.0006801264244131744
			],
			"type":"VEC3"
		},
		{
			"bufferView":1,
			"componentType":5126,
			"count":70,
			"type":"VEC3"
		},
		{
			"bufferView":2,
			"componentType":5123,
			"count":378,
			"type":"SCALAR"
		},
		{
			"bufferView":3,
			"componentType":5126,
			"count":9922,
			"max":[
				0.005811261013150215,
				0.09702496975660324,
				0.04472282528877258
			],
			"min":[
				-0.005622876342386007,
				0.08833924680948257,
				0.035615041851997375
			],
			"type":"VEC3"
		},
		{
			"bufferView":4,
			"componentType":5126,
			"count":9922,
			"type":"VEC3"
		},
		{
			"bufferView":5,
			"componentType":5123,
			"count":59520,
			"type":"SCALAR"
		},
		{
			"bufferView":6,
			"componentType":5126,
			"count":11172,
			"max":[
				0.02336212247610092,
				0.11408994346857071,
				0.05898208171129227
			],
			"min":[
				-0.022496894001960754,
				0.0804595947265625,
				0.02906484715640545
			],
			"type":"VEC3"
		},
		{
			"bufferView":7,
			"componentType":5126,
			"count":11172,
			"type":"VEC3"
		},
		{
			"bufferView":8,
			"componentType":5123,
			"count":60480,
			"type":"SCALAR"
		},
		{
			"bufferView":9,
			"componentType":5126,
			"count":70,
			"max":[
				0.0006291683530434966,
				0.05787746235728264,
				0.017626870423555374
			],
			"min":[
				-0.0006983241764828563,
				-2.1782354451715946e-05,
				-0.0006804671138525009
			],
			"type":"VEC3"
		},
		{
			"bufferView":10,
			"componentType":5126,
			"count":70,
			"type":"VEC3"
		},
		{
			"bufferView":11,
			"componentType":5126,
			"count":9762,
			"max":[
				0.0041523100808262825,
				0.061076819896698,
				0.021500293165445328
			],
			"min":[
				-0.004236675798892975,
				0.05548375844955444,
				0.014026403427124023
			],
			"type":"VEC3"
		},
		{
			"bufferView":12,
			"componentType":5126,
			"count":9762,
			"type":"VEC3"
		},
		{
			"bufferView":13,
			"componentType":5123,
			"count":58560,
			"type":"SCALAR"
		},
		{
			"bufferView":14,
			"componentType":5126,
			"count":10080,
			"max":[
				0.017965469509363174,
				0.07294639945030212,
				0.034691572189331055
			],
			"min":[
				-0.01661454327404499,
				0.05120648443698883,
				0.0056386664509773254
			],
			"type":"VEC3"
		},
		{
			"bufferView":15,
			"componentType":5126,
			"count":10080,
			"type":"VEC3"
		},
		{
			"bufferView":16,
			"componentType":5123,
			"count":53760,
			"type":"SCALAR"
		},
		{
			"bufferView":17,
			"componentType":5126,
			"count":70,
			"max":[
				0.0006291684112511575,
				0.037091661244630814,
				0.0165826715528965
			],
			"min":[
				-0.0006983242346905172,
				-3.130644836346619e-05,
				-0.0006800955161452293
			],
			"type":"VEC3"
		},
		{
			"bufferView":18,
			"componentType":5126,
			"count":70,
			"type":"VEC3"
		},
		{
			"bufferView":19,
			"componentType":5126,
			"count":9922,
			"max":[
				0.004869501106441021,
				0.041056077927351,
				0.020620565861463547
			],
			"min":[
				-0.004698743112385273,
				0.033726584166288376,
				0.013097226619720459
			],
			"type":"VEC3"
		},
		{
			"bufferView":20,
			"componentType":5126,
			"count":9922,
			"type":"VEC3"
		},
		{
			"bufferView":21,
			"componentType":5126,
			"count":6006,
			"max":[
				0.005475825630128384,
				0.04611946642398834,
				0.026284808292984962
			],
			"min":[
				-0.0051980759017169476,
				0.03354315459728241,
				0.012992904521524906
			],
			"type":"VEC3"
		},
		{
			"bufferView":22,
			"componentType":5126,
			"count":6006,
			"type":"VEC3"
		},
		{
			"bufferView":23,
			"componentType":5123,
			"count":31680,
			"type":"SCALAR"
		},
		{
			"bufferView":24,
			"componentType":5126,
			"count":70,
			"max":[
				0.0006291683530434966,
				0.0770537406206131,
				0.023307563737034798
			],
			"min":[
				-0.0006983241764828563,
				-2.1782354451715946e-05,
				-0.0006804671720601618
			],
			"type":"VEC3"
		},
		{
			"bufferView":25,
			"componentType":5126,
			"count":70,
			"type":"VEC3"
		},
		{
			"bufferView":26,
			"componentType":5126,
			"count":9282,
			"max":[
				0.0037046042270958424,
				0.07996328920125961,
				0.02668178826570511
			],
			"min":[
				-0.0035789688117802143,
				0.07495219260454178,
				0.020137909799814224
			],
			"type":"VEC3"
		},
		{
			"bufferView":27,
			"componentType":5126,
			"count":9282,
			"type":"VEC3"
		},
		{
			"bufferView":28,
			"componentType":5123,
			"count":55680,
			"type":"SCALAR"
		},
		{
			"bufferView":29,
			"componentType":5126,
			"count":4158,
			"max":[
				0.01157536543905735,
				0.0831138864159584,
				0.0319753922522068
			],
			"min":[
				-0.010760368779301643,
				0.07049548625946045,
				0.013255655765533447
			],
			"type":"VEC3"
		},
		{
			"bufferView":30,
			"componentType":5126,
			"count":4158,
			"type":"VEC3"
		},
		{
			"bufferView":31,
			"componentType":5123,
			"count":21120,
			"type":"SCALAR"
		},
		{
			"bufferView":32,
			"componentType":5126,
			"count":70,
			"max":[
				0.0006291684112511575,
				0.05032052472233772,
				0.033906240016222
			],
			"min":[
				-0.0006983242346905172,
				-4.490118953981437e-05,
				-0.0006793334614485502
			],
			"type":"VEC3"
		},
		{
			"bufferView":33,
			"componentType":5126,
			"count":70,
			"type":"VEC3"
		},
		{
			"bufferView":34,
			"componentType":5126,
			"count":9922,
			"max":[
				0.004869501106441021,
				0.054648276418447495,
				0.03733249381184578
			],
			"min":[
				-0.004698743112385273,
				0.046211764216423035,
				0.031346067786216736
			],
			"type":"VEC3"
		},
		{
			"bufferView":35,
			"componentType":5126,
			"count":9922,
			"type":"VEC3"
		},
		{
			"bufferView":36,
			"componentType":5126,
			"count":12768,
			"max":[
				0.017816627398133278,
				0.06939739733934402,
				0.05452735722064972
			],
			"min":[
				-0.016047872602939606,
				0.03986874967813492,
				0.03130494803190231
			],
			"type":"VEC3"
		},
		{
			"bufferView":37,
			"componentType":5126,
			"count":12768,
			"type":"VEC3"
		},
		{
			"bufferView":38,
			"componentType":5123,
			"count":69120,
			"type":"SCALAR"
		},
		{
			"bufferView":39,
			"componentType":5126,
			"count":49,
			"max":[
				2.0416666666666665
			],
			"min":[
				0.041666666666666664
			],
			"type":"SCALAR"
		},
		{
			"bufferView":40,
			"componentType":5126,
			"count":49,
			"type":"VEC3"
		},
		{
			"bufferView":41,
			"componentType":5126,
			"count":49,
			"type":"VEC4"
		},
		{
			"bufferView":42,
			"componentType":5126,
			"count":49,
			"type":"VEC3"
		},
		{
			"bufferView":43,
			"componentType":5126,
			"count":49,
			"type":"VEC3"
		},
		{
			"bufferView":44,
			"componentType":5126,
			"count":49,
			"type":"VEC4"
		},
		{
			"bufferView":45,
			"componentType":5126,
			"count":49,
			"type":"VEC3"
		},
		{
			"bufferView":46,
			"componentType":5126,
			"count":49,
			"type":"VEC3"
		},
		{
			"bufferView":47,
			"componentType":5126,
			"count":49,
			"type":"VEC4"
		},
		{
			"bufferView":48,
			"componentType":5126,
			"count":49,
			"type":"VEC3"
		},
		{
			"bufferView":49,
			"componentType":5126,
			"count":49,
			"type":"VEC3"
		},
		{
			"bufferView":50,
			"componentType":5126,
			"count":49,
			"type":"VEC4"
		},
		{
			"bufferView":51,
			"componentType":5126,
			"count":49,
			"type":"VEC3"
		}
	],
	"bufferViews":[
		{
			"buffer":0,
			"byteLength":840,
			"byteOffset":0,
			"target":34962
		},
		{
			"buffer":0,
			"byteLength":840,
			"byteOffset":840,
			"target":34962
		},
		{
			"buffer":0,
			"byteLength":756,
			"byteOffset":1680,
			"target":34963
		},
		{
			"buffer":0,
			"byteLength":119064,
			"byteOffset":2436,
			"target":34962
		},
		{
			"buffer":0,
			"byteLength":119064,
			"byteOffset":121500,
			"target":34962
		},
		{
			"buffer":0,
			"byteLength":119040,
			"byteOffset":240564,
			"target":34963
		},
		{
			"buffer":0,
			"byteLength":134064,
			"byteOffset":359604,
			"target":34962
		},
		{
			"buffer":0,
			"byteLength":134064,
			"byteOffset":493668,
			"target":34962
		},
		{
			"buffer":0,
			"byteLength":120960,
			"byteOffset":627732,
			"target":34963
		},
		{
			"buffer":0,
			"byteLength":840,
			"byteOffset":748692,
			"target":34962
		},
		{
			"buffer":0,
			"byteLength":840,
			"byteOffset":749532,
			"target":34962
		},
		{
			"buffer":0,
			"byteLength":117144,
			"byteOffset":750372,
			"target":34962
		},
		{
			"buffer":0,
			"byteLength":117144,
			"byteOffset":867516,
			"target":34962
		},
		{
			"buffer":0,
			"byteLength":117120,
			"byteOffset":984660,
			"target":34963
		},
		{
			"buffer":0,
			"byteLength":120960,
			"byteOffset":1101780,
			"target":34962
		},
		{
			"buffer":0,
			"byteLength":120960,
			"byteOffset":1222740,
			"target":34962
		},
		{
			"buffer":0,
			"byteLength":107520,
			"byteOffset":1343700,
			"target":34963
		},
		{
			"buffer":0,
			"byteLength":840,
			"byteOffset":1451220,
			"target":34962
		},
		{
			"buffer":0,
			"byteLength":840,
			"byteOffset":1452060,
			"target":34962
		},
		{
			"buffer":0,
			"byteLength":119064,
			"byteOffset":1452900,
			"target":34962
		},
		{
			"buffer":0,
			"byteLength":119064,
			"byteOffset":1571964,
			"target":34962
		},
		{
			"buffer":0,
			"byteLength":72072,
			"byteOffset":1691028,
			"target":34962
		},
		{
			"buffer":0,
			"byteLength":72072,
			"byteOffset":1763100,
			"target":34962
		},
		{
			"buffer":0,
			"byteLength":63360,
			"byteOffset":1835172,
			"target":34963
		},
		{
			"buffer":0,
			"byteLength":840,
			"byteOffset":1898532,
			"target":34962
		},
		{
			"buffer":0,
			"byteLength":840,
			"byteOffset":1899372,
			"target":34962
		},
		{
			"buffer":0,
			"byteLength":111384,
			"byteOffset":1900212,
			"target":34962
		},
		{
			"buffer":0,
			"byteLength":111384,
			"byteOffset":2011596,
			"target":34962
		},
		{
			"buffer":0,
			"byteLength":111360,
			"byteOffset":2122980,
			"target":34963
		},
		{
			"buffer":0,
			"byteLength":49896,
			"byteOffset":2234340,
			"target":34962
		},
		{
			"buffer":0,
			"byteLength":49896,
			"byteOffset":2284236,
			"target":34962
		},
		{
			"buffer":0,
			"byteLength":42240,
			"byteOffset":2334132,
			"target":34963
		},
		{
			"buffer":0,
			"byteLength":840,
			"byteOffset":2376372,
			"target":34962
		},
		{
			"buffer":0,
			"byteLength":840,
			"byteOffset":2377212,
			"target":34962
		},
		{
			"buffer":0,
			"byteLength":119064,
			"byteOffset":2378052,
			"target":34962
		},
		{
			"buffer":0,
			"byteLength":119064,
			"byteOffset":2497116,
			"target":34962
		},
		{
			"buffer":0,
			"byteLength":153216,
			"byteOffset":2616180,
			"target":34962
		},
		{
			"buffer":0,
			"byteLength":153216,
			"byteOffset":2769396,
			"target":34962
		},
		{
			"buffer":0,
			"byteLength":138240,
			"byteOffset":2922612,
			"target":34963
		},
		{
			"buffer":0,
			"byteLength":196,
			"byteOffset":3060852
		},
		{
			"buffer":0,
			"byteLength":588,
			"byteOffset":3061048
		},
		{
			"buffer":0,
			"byteLength":784,
			"byteOffset":3061636
		},
		{
			"buffer":0,
			"byteLength":588,
			"byteOffset":3062420
		},
		{
			"buffer":0,
			"byteLength":588,
			"byteOffset":3063008
		},
		{
			"buffer":0,
			"byteLength":784,
			"byteOffset":3063596
		},
		{
			"buffer":0,
			"byteLength":588,
			"byteOffset":3064380
		},
		{
			"buffer":0,
			"byteLength":588,
			"byteOffset":3064968
		},
		{
			"buffer":0,
			"byteLength":784,
			"byteOffset":3065556
		},
		{
			"buffer":0,
			"byteLength":588,
			"byteOffset":3066340
		},
		{
			"buffer":0,
			"byteLength":588,
			"byteOffset":3066928
		},
		{
			"buffer":0,
			"byteLength":784,
			"byteOffset":3067516
		},
		{
			"buffer":0,
			"byteLength":588,
			"byteOffset":3068300
		}
	],
	"buffers":[
		{
			"byteLength":3068888,
			"uri":"daisies.bin"
		}
	]
}
