<svg width="82" height="80" viewBox="0 0 82 80" fill="none" xmlns="http://www.w3.org/2000/svg">
<mask id="mask0_906_145" style="mask-type:alpha" maskUnits="userSpaceOnUse" x="0" y="0" width="82" height="80">
<rect width="82" height="80" fill="white"/>
</mask>
<g mask="url(#mask0_906_145)">
<path d="M20.3528 28.6805C12.6643 18.6855 14.9709 11.7658 14.9709 11.7658C14.9709 11.7658 22.4228 9.12655 32.1443 17.4212C41.8658 25.7159 42.265 39.06 42.265 39.06C42.265 39.06 28.0413 38.6756 20.3528 28.6805Z" fill="url(#paint0_radial_906_145)"/>
<path d="M16.2401 46.9203C3.73598 45.2893 0.47403 38.7654 0.47403 38.7654C0.47403 38.7654 3.87711 31.6298 16.6165 30.6209C29.3559 29.612 39.0738 38.7654 39.0738 38.7654C39.0738 38.7654 28.7443 48.5512 16.2401 46.9203Z" fill="url(#paint1_radial_906_145)"/>
<path d="M27.7286 63.7261C17.7336 71.4146 10.814 69.1081 10.814 69.1081C10.814 69.1081 8.17466 61.6561 16.4694 51.9346C24.7641 42.2131 38.1081 41.8139 38.1081 41.8139C38.1081 41.8139 37.7237 56.0376 27.7286 63.7261Z" fill="url(#paint2_radial_906_145)"/>
<path d="M49.2728 63.7592C47.6419 76.2634 41.118 79.5253 41.118 79.5253C41.118 79.5253 33.9824 76.1223 32.9735 63.3829C31.9646 50.6435 41.118 40.9256 41.118 40.9256C41.118 40.9256 50.9038 51.2551 49.2728 63.7592Z" fill="url(#paint3_radial_906_145)"/>
<path d="M64.7262 51.2755C72.4146 61.2705 70.1081 68.1902 70.1081 68.1902C70.1081 68.1902 62.6561 70.8294 52.9346 62.5347C43.2131 54.24 42.814 40.896 42.814 40.896C42.814 40.896 57.0377 41.2804 64.7262 51.2755Z" fill="url(#paint4_radial_906_145)"/>
<path d="M65.8337 31.1833C78.3378 32.8143 81.5997 39.3382 81.5997 39.3382C81.5997 39.3382 78.1967 46.4738 65.4573 47.4827C52.7179 48.4916 43 39.3382 43 39.3382C43 39.3382 53.3295 29.5524 65.8337 31.1833Z" fill="url(#paint5_radial_906_145)"/>
<path d="M52.2755 17.278C62.2705 9.58948 69.1902 11.896 69.1902 11.896C69.1902 11.896 71.8295 19.348 63.5348 29.0695C55.2401 38.791 41.896 39.1902 41.896 39.1902C41.896 39.1902 42.2804 24.9665 52.2755 17.278Z" fill="url(#paint6_radial_906_145)"/>
<path d="M33.0792 16.7412C34.7101 4.23702 41.234 0.975067 41.234 0.975067C41.234 0.975067 48.3696 4.37814 49.3785 17.1175C50.3874 29.8569 41.234 39.5748 41.234 39.5748C41.234 39.5748 31.4482 29.2453 33.0792 16.7412Z" fill="url(#paint7_radial_906_145)"/>
<path d="M25.9584 23.1957C22.6801 11.0192 27.4591 5.50898 27.4591 5.50898C27.4591 5.50898 35.3538 5.92234 41.1611 17.3059C46.9683 28.6895 42.2305 41.1705 42.2305 41.1705C42.2305 41.1705 29.2367 35.3722 25.9584 23.1957Z" fill="url(#paint8_radial_906_145)"/>
<path d="M15.1787 38.4731C4.25052 32.1812 3.73346 24.9056 3.73346 24.9056C3.73346 24.9056 9.60817 19.6154 21.7639 23.5585C33.9197 27.5015 39.395 39.6771 39.395 39.6771C39.395 39.6771 26.1069 44.7651 15.1787 38.4731Z" fill="url(#paint9_radial_906_145)"/>
<path d="M23.2045 56.6666C11.028 59.9449 5.51777 55.1659 5.51777 55.1659C5.51777 55.1659 5.93113 47.2712 17.3147 41.4639C28.6983 35.6567 41.1793 40.3944 41.1793 40.3944C41.1793 40.3944 35.3809 53.3883 23.2045 56.6666Z" fill="url(#paint10_radial_906_145)"/>
<path d="M39.2529 66.6714C32.961 77.5996 25.6854 78.1167 25.6854 78.1167C25.6854 78.1167 20.3953 72.2419 24.3383 60.0862C28.2813 47.9305 40.4569 42.4551 40.4569 42.4551C40.4569 42.4551 45.5449 55.7432 39.2529 66.6714Z" fill="url(#paint11_radial_906_145)"/>
<path d="M58.8685 60.1657C62.1468 72.3422 57.3678 77.8524 57.3678 77.8524C57.3678 77.8524 49.4731 77.439 43.6658 66.0555C37.8585 54.6719 42.5963 42.1909 42.5963 42.1909C42.5963 42.1909 55.5902 47.9892 58.8685 60.1657Z" fill="url(#paint12_radial_906_145)"/>
<path d="M65.3628 41.9075C76.291 48.1994 76.808 55.475 76.808 55.475C76.808 55.475 70.9333 60.7651 58.7776 56.8221C46.6218 52.8791 41.1465 40.7035 41.1465 40.7035C41.1465 40.7035 54.4346 35.6155 65.3628 41.9075Z" fill="url(#paint13_radial_906_145)"/>
<path d="M58.957 24.3294C71.1335 21.0511 76.6437 25.8301 76.6437 25.8301C76.6437 25.8301 76.2304 33.7249 64.8468 39.5321C53.4632 45.3394 40.9822 40.6016 40.9822 40.6016C40.9822 40.6016 46.7806 27.6077 58.957 24.3294Z" fill="url(#paint14_radial_906_145)"/>
<path d="M42.285 17.0353C48.5769 6.10711 55.8525 5.59005 55.8525 5.59005C55.8525 5.59005 61.1427 11.4648 57.1996 23.6205C53.2566 35.7762 41.0811 41.2516 41.0811 41.2516C41.0811 41.2516 35.993 27.9634 42.285 17.0353Z" fill="url(#paint15_radial_906_145)"/>
<path d="M34.9097 21.5838C36.1535 12.0483 41.1285 9.56073 41.1285 9.56073C41.1285 9.56073 46.5701 12.1559 47.3395 21.8708C48.1088 31.5858 41.1285 38.9965 41.1285 38.9965C41.1285 38.9965 33.6659 31.1194 34.9097 21.5838Z" fill="url(#paint16_radial_906_145)"/>
<path d="M22.8566 29.2015C16.9934 21.5794 18.7523 16.3025 18.7523 16.3025C18.7523 16.3025 24.4351 14.2898 31.8487 20.6153C39.2622 26.9407 39.5666 37.1168 39.5666 37.1168C39.5666 37.1168 28.7197 36.8236 22.8566 29.2015Z" fill="url(#paint17_radial_906_145)"/>
<path d="M23.2016 44.3618C13.6661 43.118 11.1786 38.1429 11.1786 38.1429C11.1786 38.1429 13.7737 32.7014 23.4887 31.932C33.2036 31.1626 40.6144 38.1429 40.6144 38.1429C40.6144 38.1429 32.7372 45.6055 23.2016 44.3618Z" fill="url(#paint18_radial_906_145)"/>
<path d="M31.3326 57.1437C23.7105 63.0069 18.4337 61.2479 18.4337 61.2479C18.4337 61.2479 16.421 55.5651 22.7464 48.1516C29.0719 40.738 39.2479 40.4336 39.2479 40.4336C39.2479 40.4336 38.9548 51.2805 31.3326 57.1437Z" fill="url(#paint19_radial_906_145)"/>
<path d="M46.489 54.4127C45.2452 63.9483 40.2702 66.4358 40.2702 66.4358C40.2702 66.4358 34.8286 63.8407 34.0592 54.1257C33.2899 44.4108 40.2702 37 40.2702 37C40.2702 37 47.7328 44.8772 46.489 54.4127Z" fill="url(#paint20_radial_906_145)"/>
<path d="M57.1437 46.4115C63.0069 54.0337 61.2479 59.3105 61.2479 59.3105C61.2479 59.3105 55.5651 61.3232 48.1516 54.9978C40.7381 48.6723 40.4337 38.4963 40.4337 38.4963C40.4337 38.4963 51.2806 38.7894 57.1437 46.4115Z" fill="url(#paint21_radial_906_145)"/>
<path d="M59.4127 33.1398C68.9483 34.3836 71.4358 39.3586 71.4358 39.3586C71.4358 39.3586 68.8407 44.8002 59.1257 45.5696C49.4108 46.3389 42 39.3586 42 39.3586C42 39.3586 49.8772 31.896 59.4127 33.1398Z" fill="url(#paint22_radial_906_145)"/>
<path d="M48.2103 22.0081C55.8324 16.145 61.1093 17.9039 61.1093 17.9039C61.1093 17.9039 63.122 23.5867 56.7965 31.0002C50.471 38.4138 40.295 38.7182 40.295 38.7182C40.295 38.7182 40.5882 27.8713 48.2103 22.0081Z" fill="url(#paint23_radial_906_145)"/>
<path d="M31.5286 29.71C29.4117 21.847 32.4977 18.2887 32.4977 18.2887C32.4977 18.2887 37.5958 18.5556 41.3458 25.9066C45.0959 33.2576 42.0365 41.3173 42.0365 41.3173C42.0365 41.3173 33.6456 37.573 31.5286 29.71Z" fill="url(#paint24_radial_906_145)"/>
<path d="M24.5676 39.5754C17.5107 35.5124 17.1768 30.8141 17.1768 30.8141C17.1768 30.8141 20.9704 27.398 28.8201 29.9443C36.6697 32.4905 40.2054 40.3529 40.2054 40.3529C40.2054 40.3529 31.6245 43.6385 24.5676 39.5754Z" fill="url(#paint25_radial_906_145)"/>
<path d="M29.7503 51.324C21.8873 53.4409 18.329 50.3549 18.329 50.3549C18.329 50.3549 18.596 45.2568 25.9469 41.5068C33.2979 37.7567 41.3576 40.8161 41.3576 40.8161C41.3576 40.8161 37.6133 49.207 29.7503 51.324Z" fill="url(#paint26_radial_906_145)"/>
<path d="M40.1136 57.7846C36.0506 64.8415 31.3523 65.1754 31.3523 65.1754C31.3523 65.1754 27.9362 61.3818 30.4825 53.5322C33.0287 45.6825 40.8911 42.1468 40.8911 42.1468C40.8911 42.1468 44.1767 50.7277 40.1136 57.7846Z" fill="url(#paint27_radial_906_145)"/>
<path d="M52.4132 52.6678C54.5302 60.5308 51.4441 64.0891 51.4441 64.0891C51.4441 64.0891 46.346 63.8222 42.596 56.4712C38.8459 49.1202 41.9054 41.0605 41.9054 41.0605C41.9054 41.0605 50.2962 44.8048 52.4132 52.6678Z" fill="url(#paint28_radial_906_145)"/>
<path d="M57.6696 41.752C64.7266 45.8151 65.0604 50.5133 65.0604 50.5133C65.0604 50.5133 61.2668 53.9295 53.4172 51.3832C45.5676 48.837 42.0319 40.9746 42.0319 40.9746C42.0319 40.9746 50.6127 37.689 57.6696 41.752Z" fill="url(#paint29_radial_906_145)"/>
<path d="M52.8376 30.4421C60.7006 28.3251 64.2589 31.4112 64.2589 31.4112C64.2589 31.4112 63.992 36.5092 56.641 40.2593C49.29 44.0093 41.2303 40.9499 41.2303 40.9499C41.2303 40.9499 44.9746 32.5591 52.8376 30.4421Z" fill="url(#paint30_radial_906_145)"/>
<path d="M42.0716 25.7318C46.1347 18.6749 50.8329 18.341 50.8329 18.341C50.8329 18.341 54.249 22.1346 51.7028 29.9843C49.1566 37.8339 41.2942 41.3696 41.2942 41.3696C41.2942 41.3696 38.0086 32.7887 42.0716 25.7318Z" fill="url(#paint31_radial_906_145)"/>
<path d="M37.309 28.6691C38.1122 22.5115 41.3248 20.9052 41.3248 20.9052C41.3248 20.9052 44.8387 22.581 45.3356 28.8544C45.8324 35.1279 41.3248 39.9135 41.3248 39.9135C41.3248 39.9135 36.5058 34.8267 37.309 28.6691Z" fill="url(#paint32_radial_906_145)"/>
<path d="M29.5256 33.5883C25.7395 28.6662 26.8753 25.2587 26.8753 25.2587C26.8753 25.2587 30.545 23.959 35.3323 28.0437C40.1197 32.1284 40.3162 38.6996 40.3162 38.6996C40.3162 38.6996 33.3118 38.5103 29.5256 33.5883Z" fill="url(#paint33_radial_906_145)"/>
<path d="M29.7485 43.3781C23.5909 42.5749 21.9845 39.3622 21.9845 39.3622C21.9845 39.3622 23.6604 35.8483 29.9338 35.3515C36.2073 34.8547 40.9928 39.3622 40.9928 39.3622C40.9928 39.3622 35.9061 44.1812 29.7485 43.3781Z" fill="url(#paint34_radial_906_145)"/>
<path d="M35.1645 50.9542C30.2424 54.7404 26.8349 53.6045 26.8349 53.6045C26.8349 53.6045 25.5352 49.9348 29.6199 45.1475C33.7046 40.3602 40.2758 40.1636 40.2758 40.1636C40.2758 40.1636 40.0865 47.168 35.1645 50.9542Z" fill="url(#paint35_radial_906_145)"/>
<path d="M44.9542 49.5386C44.1511 55.6962 40.9384 57.3026 40.9384 57.3026C40.9384 57.3026 37.4245 55.6267 36.9277 49.3533C36.4308 43.0798 40.9384 38.2942 40.9384 38.2942C40.9384 38.2942 45.7574 43.381 44.9542 49.5386Z" fill="url(#paint36_radial_906_145)"/>
<path d="M51.5367 44.3218C55.3229 49.2438 54.1871 52.6513 54.1871 52.6513C54.1871 52.6513 50.5174 53.951 45.73 49.8664C40.9427 45.7817 40.7462 39.2104 40.7462 39.2104C40.7462 39.2104 47.7506 39.3998 51.5367 44.3218Z" fill="url(#paint37_radial_906_145)"/>
<path d="M52.1084 35.4036C58.2661 36.2067 59.8724 39.4194 59.8724 39.4194C59.8724 39.4194 58.1966 42.9333 51.9231 43.4301C45.6496 43.927 40.8641 39.4194 40.8641 39.4194C40.8641 39.4194 45.9508 34.6004 52.1084 35.4036Z" fill="url(#paint38_radial_906_145)"/>
<path d="M45.8979 28.9431C50.8199 25.1569 54.2275 26.2928 54.2275 26.2928C54.2275 26.2928 55.5272 29.9625 51.4425 34.7498C47.3578 39.5371 40.7866 39.7337 40.7866 39.7337C40.7866 39.7337 40.9759 32.7293 45.8979 28.9431Z" fill="url(#paint39_radial_906_145)"/>
</g>
<defs>
<radialGradient id="paint0_radial_906_145" cx="0" cy="0" r="1" gradientUnits="userSpaceOnUse" gradientTransform="translate(28.5769 25.4539) rotate(45) scale(19.2999 8.28021)">
<stop offset="0.447917" stop-color="#5AA2FF"/>
<stop offset="0.822917" stop-color="#8ACDEA"/>
<stop offset="1" stop-color="#B1E8FF"/>
</radialGradient>
<radialGradient id="paint1_radial_906_145" cx="0" cy="0" r="1" gradientUnits="userSpaceOnUse" gradientTransform="translate(19.7739 38.8234) scale(19.2999 8.2802)">
<stop offset="0.447917" stop-color="#5AA2FF"/>
<stop offset="0.822917" stop-color="#8ACDEA"/>
<stop offset="1" stop-color="#B1E8FF"/>
</radialGradient>
<radialGradient id="paint2_radial_906_145" cx="0" cy="0" r="1" gradientUnits="userSpaceOnUse" gradientTransform="translate(24.5021 55.502) rotate(-45) scale(19.2999 8.28021)">
<stop offset="0.447917" stop-color="#5AA2FF"/>
<stop offset="0.822917" stop-color="#8ACDEA"/>
<stop offset="1" stop-color="#B1E8FF"/>
</radialGradient>
<radialGradient id="paint3_radial_906_145" cx="0" cy="0" r="1" gradientUnits="userSpaceOnUse" gradientTransform="translate(41.176 60.2255) rotate(-90) scale(19.2999 8.2802)">
<stop offset="0.447917" stop-color="#5AA2FF"/>
<stop offset="0.822917" stop-color="#8ACDEA"/>
<stop offset="1" stop-color="#B1E8FF"/>
</radialGradient>
<radialGradient id="paint4_radial_906_145" cx="0" cy="0" r="1" gradientUnits="userSpaceOnUse" gradientTransform="translate(56.5021 54.502) rotate(-135) scale(19.2999 8.28021)">
<stop offset="0.447917" stop-color="#5AA2FF"/>
<stop offset="0.822917" stop-color="#8ACDEA"/>
<stop offset="1" stop-color="#B1E8FF"/>
</radialGradient>
<radialGradient id="paint5_radial_906_145" cx="0" cy="0" r="1" gradientUnits="userSpaceOnUse" gradientTransform="translate(62.2999 39.2802) rotate(180) scale(19.2999 8.2802)">
<stop offset="0.447917" stop-color="#5AA2FF"/>
<stop offset="0.822917" stop-color="#8ACDEA"/>
<stop offset="1" stop-color="#B1E8FF"/>
</radialGradient>
<radialGradient id="paint6_radial_906_145" cx="0" cy="0" r="1" gradientUnits="userSpaceOnUse" gradientTransform="translate(55.5021 25.5021) rotate(135) scale(19.2999 8.28021)">
<stop offset="0.447917" stop-color="#5AA2FF"/>
<stop offset="0.822917" stop-color="#8ACDEA"/>
<stop offset="1" stop-color="#B1E8FF"/>
</radialGradient>
<radialGradient id="paint7_radial_906_145" cx="0" cy="0" r="1" gradientUnits="userSpaceOnUse" gradientTransform="translate(41.176 20.2749) rotate(90) scale(19.2999 8.2802)">
<stop offset="0.447917" stop-color="#5AA2FF"/>
<stop offset="0.822917" stop-color="#8ACDEA"/>
<stop offset="1" stop-color="#B1E8FF"/>
</radialGradient>
<radialGradient id="paint8_radial_906_145" cx="0" cy="0" r="1" gradientUnits="userSpaceOnUse" gradientTransform="translate(34.7912 23.3619) rotate(67.5) scale(19.2999 8.28021)">
<stop offset="0.447917" stop-color="#5AA2FF"/>
<stop offset="0.822917" stop-color="#8ACDEA"/>
<stop offset="1" stop-color="#B1E8FF"/>
</radialGradient>
<radialGradient id="paint9_radial_906_145" cx="0" cy="0" r="1" gradientUnits="userSpaceOnUse" gradientTransform="translate(21.542 32.3449) rotate(22.5) scale(19.2999 8.28021)">
<stop offset="0.447917" stop-color="#5AA2FF"/>
<stop offset="0.822917" stop-color="#8ACDEA"/>
<stop offset="1" stop-color="#B1E8FF"/>
</radialGradient>
<radialGradient id="paint10_radial_906_145" cx="0" cy="0" r="1" gradientUnits="userSpaceOnUse" gradientTransform="translate(23.3707 47.8338) rotate(-22.5) scale(19.2999 8.28021)">
<stop offset="0.447917" stop-color="#5AA2FF"/>
<stop offset="0.822917" stop-color="#8ACDEA"/>
<stop offset="1" stop-color="#B1E8FF"/>
</radialGradient>
<radialGradient id="paint11_radial_906_145" cx="0" cy="0" r="1" gradientUnits="userSpaceOnUse" gradientTransform="translate(33.1247 60.3081) rotate(-67.5) scale(19.2999 8.28021)">
<stop offset="0.447917" stop-color="#5AA2FF"/>
<stop offset="0.822917" stop-color="#8ACDEA"/>
<stop offset="1" stop-color="#B1E8FF"/>
</radialGradient>
<radialGradient id="paint12_radial_906_145" cx="0" cy="0" r="1" gradientUnits="userSpaceOnUse" gradientTransform="translate(50.0357 59.9994) rotate(-112.5) scale(19.2999 8.28021)">
<stop offset="0.447917" stop-color="#5AA2FF"/>
<stop offset="0.822917" stop-color="#8ACDEA"/>
<stop offset="1" stop-color="#B1E8FF"/>
</radialGradient>
<radialGradient id="paint13_radial_906_145" cx="0" cy="0" r="1" gradientUnits="userSpaceOnUse" gradientTransform="translate(58.9995 48.0357) rotate(-157.5) scale(19.2999 8.28021)">
<stop offset="0.447917" stop-color="#5AA2FF"/>
<stop offset="0.822917" stop-color="#8ACDEA"/>
<stop offset="1" stop-color="#B1E8FF"/>
</radialGradient>
<radialGradient id="paint14_radial_906_145" cx="0" cy="0" r="1" gradientUnits="userSpaceOnUse" gradientTransform="translate(58.7908 33.1623) rotate(157.5) scale(19.2999 8.28021)">
<stop offset="0.447917" stop-color="#5AA2FF"/>
<stop offset="0.822917" stop-color="#8ACDEA"/>
<stop offset="1" stop-color="#B1E8FF"/>
</radialGradient>
<radialGradient id="paint15_radial_906_145" cx="0" cy="0" r="1" gradientUnits="userSpaceOnUse" gradientTransform="translate(48.4132 23.3986) rotate(112.5) scale(19.2999 8.28021)">
<stop offset="0.447917" stop-color="#5AA2FF"/>
<stop offset="0.822917" stop-color="#8ACDEA"/>
<stop offset="1" stop-color="#B1E8FF"/>
</radialGradient>
<radialGradient id="paint16_radial_906_145" cx="0" cy="0" r="1" gradientUnits="userSpaceOnUse" gradientTransform="translate(41.0843 24.2786) rotate(90) scale(14.7179 6.31441)">
<stop offset="0.447917" stop-color="#5AA2FF"/>
<stop offset="0.822917" stop-color="#8ACDEA"/>
<stop offset="1" stop-color="#B1E8FF"/>
</radialGradient>
<radialGradient id="paint17_radial_906_145" cx="0" cy="0" r="1" gradientUnits="userSpaceOnUse" gradientTransform="translate(29.1282 26.7409) rotate(45) scale(14.7179 6.31441)">
<stop offset="0.447917" stop-color="#5AA2FF"/>
<stop offset="0.822917" stop-color="#8ACDEA"/>
<stop offset="1" stop-color="#B1E8FF"/>
</radialGradient>
<radialGradient id="paint18_radial_906_145" cx="0" cy="0" r="1" gradientUnits="userSpaceOnUse" gradientTransform="translate(25.8965 38.1872) scale(14.7179 6.31441)">
<stop offset="0.447917" stop-color="#5AA2FF"/>
<stop offset="0.822917" stop-color="#8ACDEA"/>
<stop offset="1" stop-color="#B1E8FF"/>
</radialGradient>
<radialGradient id="paint19_radial_906_145" cx="0" cy="0" r="1" gradientUnits="userSpaceOnUse" gradientTransform="translate(28.8721 50.8721) rotate(-45) scale(14.7179 6.31441)">
<stop offset="0.447917" stop-color="#5AA2FF"/>
<stop offset="0.822917" stop-color="#8ACDEA"/>
<stop offset="1" stop-color="#B1E8FF"/>
</radialGradient>
<radialGradient id="paint20_radial_906_145" cx="0" cy="0" r="1" gradientUnits="userSpaceOnUse" gradientTransform="translate(40.3144 51.7179) rotate(-90) scale(14.7179 6.31441)">
<stop offset="0.447917" stop-color="#5AA2FF"/>
<stop offset="0.822917" stop-color="#8ACDEA"/>
<stop offset="1" stop-color="#B1E8FF"/>
</radialGradient>
<radialGradient id="paint21_radial_906_145" cx="0" cy="0" r="1" gradientUnits="userSpaceOnUse" gradientTransform="translate(50.8721 48.8721) rotate(-135) scale(14.7179 6.31441)">
<stop offset="0.447917" stop-color="#5AA2FF"/>
<stop offset="0.822917" stop-color="#8ACDEA"/>
<stop offset="1" stop-color="#B1E8FF"/>
</radialGradient>
<radialGradient id="paint22_radial_906_145" cx="0" cy="0" r="1" gradientUnits="userSpaceOnUse" gradientTransform="translate(56.7179 39.3144) rotate(180) scale(14.7179 6.31441)">
<stop offset="0.447917" stop-color="#5AA2FF"/>
<stop offset="0.822917" stop-color="#8ACDEA"/>
<stop offset="1" stop-color="#B1E8FF"/>
</radialGradient>
<radialGradient id="paint23_radial_906_145" cx="0" cy="0" r="1" gradientUnits="userSpaceOnUse" gradientTransform="translate(50.6709 28.2797) rotate(135) scale(14.7179 6.31441)">
<stop offset="0.447917" stop-color="#5AA2FF"/>
<stop offset="0.822917" stop-color="#8ACDEA"/>
<stop offset="1" stop-color="#B1E8FF"/>
</radialGradient>
<radialGradient id="paint24_radial_906_145" cx="0" cy="0" r="1" gradientUnits="userSpaceOnUse" gradientTransform="translate(37.2325 29.8173) rotate(67.5) scale(12.463 5.34698)">
<stop offset="0.447917" stop-color="#5AA2FF"/>
<stop offset="0.822917" stop-color="#8ACDEA"/>
<stop offset="1" stop-color="#B1E8FF"/>
</radialGradient>
<radialGradient id="paint25_radial_906_145" cx="0" cy="0" r="1" gradientUnits="userSpaceOnUse" gradientTransform="translate(28.6768 35.6181) rotate(22.5) scale(12.463 5.34698)">
<stop offset="0.447917" stop-color="#5AA2FF"/>
<stop offset="0.822917" stop-color="#8ACDEA"/>
<stop offset="1" stop-color="#B1E8FF"/>
</radialGradient>
<radialGradient id="paint26_radial_906_145" cx="0" cy="0" r="1" gradientUnits="userSpaceOnUse" gradientTransform="translate(29.8577 45.6201) rotate(-22.5) scale(12.463 5.34698)">
<stop offset="0.447917" stop-color="#5AA2FF"/>
<stop offset="0.822917" stop-color="#8ACDEA"/>
<stop offset="1" stop-color="#B1E8FF"/>
</radialGradient>
<radialGradient id="paint27_radial_906_145" cx="0" cy="0" r="1" gradientUnits="userSpaceOnUse" gradientTransform="translate(36.1563 53.6754) rotate(-67.5) scale(12.463 5.34698)">
<stop offset="0.447917" stop-color="#5AA2FF"/>
<stop offset="0.822917" stop-color="#8ACDEA"/>
<stop offset="1" stop-color="#B1E8FF"/>
</radialGradient>
<radialGradient id="paint28_radial_906_145" cx="0" cy="0" r="1" gradientUnits="userSpaceOnUse" gradientTransform="translate(46.7094 52.5605) rotate(-112.5) scale(12.463 5.34698)">
<stop offset="0.447917" stop-color="#5AA2FF"/>
<stop offset="0.822917" stop-color="#8ACDEA"/>
<stop offset="1" stop-color="#B1E8FF"/>
</radialGradient>
<radialGradient id="paint29_radial_906_145" cx="0" cy="0" r="1" gradientUnits="userSpaceOnUse" gradientTransform="translate(53.5605 45.7093) rotate(-157.5) scale(12.463 5.34698)">
<stop offset="0.447917" stop-color="#5AA2FF"/>
<stop offset="0.822917" stop-color="#8ACDEA"/>
<stop offset="1" stop-color="#B1E8FF"/>
</radialGradient>
<radialGradient id="paint30_radial_906_145" cx="0" cy="0" r="1" gradientUnits="userSpaceOnUse" gradientTransform="translate(52.7303 36.1459) rotate(157.5) scale(12.463 5.34698)">
<stop offset="0.447917" stop-color="#5AA2FF"/>
<stop offset="0.822917" stop-color="#8ACDEA"/>
<stop offset="1" stop-color="#B1E8FF"/>
</radialGradient>
<radialGradient id="paint31_radial_906_145" cx="0" cy="0" r="1" gradientUnits="userSpaceOnUse" gradientTransform="translate(46.0289 29.841) rotate(112.5) scale(12.463 5.34698)">
<stop offset="0.447917" stop-color="#5AA2FF"/>
<stop offset="0.822917" stop-color="#8ACDEA"/>
<stop offset="1" stop-color="#B1E8FF"/>
</radialGradient>
<radialGradient id="paint32_radial_906_145" cx="0" cy="0" r="1" gradientUnits="userSpaceOnUse" gradientTransform="translate(41.2963 30.4093) rotate(90) scale(9.50415 4.07756)">
<stop offset="0.447917" stop-color="#5AA2FF"/>
<stop offset="0.822917" stop-color="#8ACDEA"/>
<stop offset="1" stop-color="#B1E8FF"/>
</radialGradient>
<radialGradient id="paint33_radial_906_145" cx="0" cy="0" r="1" gradientUnits="userSpaceOnUse" gradientTransform="translate(33.5756 31.9994) rotate(45) scale(9.50415 4.07756)">
<stop offset="0.447917" stop-color="#5AA2FF"/>
<stop offset="0.822917" stop-color="#8ACDEA"/>
<stop offset="1" stop-color="#B1E8FF"/>
</radialGradient>
<radialGradient id="paint34_radial_906_145" cx="0" cy="0" r="1" gradientUnits="userSpaceOnUse" gradientTransform="translate(31.4887 39.3908) scale(9.50415 4.07756)">
<stop offset="0.447917" stop-color="#5AA2FF"/>
<stop offset="0.822917" stop-color="#8ACDEA"/>
<stop offset="1" stop-color="#B1E8FF"/>
</radialGradient>
<radialGradient id="paint35_radial_906_145" cx="0" cy="0" r="1" gradientUnits="userSpaceOnUse" gradientTransform="translate(33.5755 46.9043) rotate(-45) scale(9.50415 4.07756)">
<stop offset="0.447917" stop-color="#5AA2FF"/>
<stop offset="0.822917" stop-color="#8ACDEA"/>
<stop offset="1" stop-color="#B1E8FF"/>
</radialGradient>
<radialGradient id="paint36_radial_906_145" cx="0" cy="0" r="1" gradientUnits="userSpaceOnUse" gradientTransform="translate(40.967 47.7984) rotate(-90) scale(9.50415 4.07756)">
<stop offset="0.447917" stop-color="#5AA2FF"/>
<stop offset="0.822917" stop-color="#8ACDEA"/>
<stop offset="1" stop-color="#B1E8FF"/>
</radialGradient>
<radialGradient id="paint37_radial_906_145" cx="0" cy="0" r="1" gradientUnits="userSpaceOnUse" gradientTransform="translate(47.4868 45.9107) rotate(-135) scale(9.50415 4.07756)">
<stop offset="0.447917" stop-color="#5AA2FF"/>
<stop offset="0.822917" stop-color="#8ACDEA"/>
<stop offset="1" stop-color="#B1E8FF"/>
</radialGradient>
<radialGradient id="paint38_radial_906_145" cx="0" cy="0" r="1" gradientUnits="userSpaceOnUse" gradientTransform="translate(50.3682 39.3908) rotate(180) scale(9.50415 4.07756)">
<stop offset="0.447917" stop-color="#5AA2FF"/>
<stop offset="0.822917" stop-color="#8ACDEA"/>
<stop offset="1" stop-color="#B1E8FF"/>
</radialGradient>
<radialGradient id="paint39_radial_906_145" cx="0" cy="0" r="1" gradientUnits="userSpaceOnUse" gradientTransform="translate(47.4868 32.993) rotate(135) scale(9.50415 4.07756)">
<stop offset="0.447917" stop-color="#5AA2FF"/>
<stop offset="0.822917" stop-color="#8ACDEA"/>
<stop offset="1" stop-color="#B1E8FF"/>
</radialGradient>
</defs>
</svg>
