<svg width="60" height="60" viewBox="0 0 60 60" fill="none" xmlns="http://www.w3.org/2000/svg">
<path d="M51.1109 51.1315H42.2368V37.2063C42.2368 33.8858 42.1674 29.6185 37.5963 29.6185C32.969 29.6185 32.264 33.2202 32.264 36.9607V51.1297H23.3786V22.4974H31.9134V26.4029H32.0278C33.2202 24.1474 36.1207 21.7756 40.4481 21.7756C49.4497 21.7756 51.1203 27.7023 51.1203 35.4083V51.1297L51.1109 51.1315ZM13.3402 18.5844C12.662 18.5847 11.9904 18.4511 11.3639 18.1914C10.7374 17.9317 10.1682 17.5509 9.68911 17.0709C9.20997 16.5909 8.83025 16.0211 8.57167 15.3941C8.3131 14.7671 8.18076 14.0953 8.18224 13.4171C8.18336 12.3963 8.48713 11.3987 9.05514 10.5505C9.62316 9.70235 10.4299 9.04164 11.3734 8.65193C12.3169 8.26223 13.3548 8.16103 14.3558 8.36114C15.3568 8.56124 16.276 9.05366 16.9972 9.77614C17.7183 10.4986 18.2091 11.4187 18.4074 12.4201C18.6056 13.4214 18.5026 14.4591 18.1111 15.4019C17.7197 16.3447 17.0575 17.1502 16.2083 17.7167C15.3591 18.2832 14.361 18.5852 13.3402 18.5844V18.5844ZM17.7913 51.1315H8.88722V22.4993H17.7913V51.1315ZM55.5658 0H4.42486C1.98181 0 0 1.93306 0 4.32549V55.6745C0 58.0669 1.98181 60 4.42486 60H55.5564C57.9957 60 59.9981 58.0669 59.9981 55.6745V4.32549C59.9981 1.93306 57.9957 0 55.5564 0H55.5658Z" fill="#4A261F"/>
</svg>
