<svg xmlns="http://www.w3.org/2000/svg" version="1.1" xmlns:xlink="http://www.w3.org/1999/xlink" xmlns:svgjs="http://svgjs.dev/svgjs" width="1000" height="623" viewBox="0 0 1000 623"><g transform="matrix(1,0,0,1,-0.6060606060606233,0.2522267206477409)"><svg viewBox="0 0 396 247" data-background-color="#ffffff" preserveAspectRatio="xMidYMid meet" height="623" width="1000" xmlns="http://www.w3.org/2000/svg" xmlns:xlink="http://www.w3.org/1999/xlink"><g id="tight-bounds" transform="matrix(1,0,0,1,0.2400000000000091,-0.09999999999999432)"><svg viewBox="0 0 395.52 247.2" height="247.2" width="395.52"><g><svg></svg></g><g><svg viewBox="0 0 395.52 247.2" height="247.2" width="395.52"><g transform="matrix(1,0,0,1,136.09051742344246,80.34)"><svg viewBox="0 0 123.33896515311508 86.52" height="86.52" width="123.33896515311508"><g><svg viewBox="0 0 123.33896515311508 86.52" height="86.52" width="123.33896515311508"><g><svg viewBox="0 0 123.33896515311508 86.52" height="86.52" width="123.33896515311508"><g><svg viewBox="0 0 123.33896515311508 86.52" height="86.52" width="123.33896515311508"><g id="textblocktransform"><svg viewBox="0 0 123.33896515311508 86.52" height="86.52" width="123.33896515311508" id="textblock"><g><svg viewBox="0 0 123.33896515311508 86.52" height="86.52" width="123.33896515311508"><g transform="matrix(1,0,0,1,0,0)"><svg width="123.33896515311508" viewBox="-7.7 -40 68.5 48.35000000000001" height="86.52" data-palette-color="#a73b75"><path d="M19.85 4.35L19.85 4.35Q18.05 4.35 15.88 3.6 13.7 2.85 11.4 1.78 9.1 0.7 6.85-0.3L6.85-0.3Q5.6 1.1 4.25 1.88 2.9 2.65 1.3 2.65L1.3 2.65Q-0.3 2.65-1.43 1.9-2.55 1.15-3.13 0.13-3.7-0.9-3.7-1.7L-3.7-1.7Q-3.7-2.6-2.88-3.25-2.05-3.9-0.05-3.9L-0.05-3.9Q1.25-3.9 2.83-3.6 4.4-3.3 6.1-2.85L6.1-2.85Q7.3-4.95 8.33-7.75 9.35-10.55 10.35-13.7 11.35-16.85 12.35-20L12.35-20Q10.05-20.75 8.72-22.2 7.4-23.65 7.4-25.35L7.4-25.35Q7.4-26.25 7.78-27.15 8.15-28.05 8.85-28.68 9.55-29.3 10.5-29.3L10.5-29.3Q10.15-28.8 10-27.85 9.85-26.9 9.85-26.2L9.85-26.2Q9.85-24.3 10.65-23.03 11.45-21.75 12.7-21.05L12.7-21.05Q13.7-24.05 14.78-26.73 15.85-29.4 17.15-31.5 18.45-33.6 20-34.8 21.55-36 23.45-36L23.45-36Q24.45-36 25.58-35.55 26.7-35.1 27.5-34 28.3-32.9 28.3-30.9L28.3-30.9Q28.3-29.2 27.6-27.23 26.9-25.25 25.45-23.48 24-21.7 21.75-20.58 19.5-19.45 16.45-19.4L16.45-19.4Q16.4-19.4 16.23-19.4 16.05-19.4 15.5-19.4L15.5-19.4Q14.5-16.35 13.38-13.2 12.25-10.05 11-7.23 9.75-4.4 8.3-2.2L8.3-2.2Q10.6-1.5 12.95-0.78 15.3-0.05 17.5 0.43 19.7 0.9 21.55 0.9L21.55 0.9Q22.6 0.9 23.45 0.7 24.3 0.5 25.1 0.1L25.1 0.1Q24.3 2.4 22.98 3.38 21.65 4.35 19.85 4.35ZM1.1 1.2L1.1 1.2Q2.2 1.2 3.18 0.6 4.15 0 4.95-1.1L4.95-1.1Q3.4-1.75 1.93-2.18 0.45-2.6-0.75-2.6L-0.75-2.6Q-1.7-2.6-2.05-2.35-2.4-2.1-2.4-1.65L-2.4-1.65Q-2.4-0.8-1.43 0.2-0.45 1.2 1.1 1.2ZM15.8-20.35L15.8-20.35Q18.05-20.35 19.88-21.63 21.7-22.9 22.98-24.83 24.25-26.75 24.93-28.75 25.6-30.75 25.6-32.25L25.6-32.25Q25.6-33.7 25.05-34.23 24.5-34.75 23.8-34.75L23.8-34.75Q22.25-34.75 20.9-32.75 19.55-30.75 18.32-27.48 17.1-24.2 15.8-20.35ZM48.35 4.35L48.35 4.35Q46.55 4.35 44.37 3.6 42.2 2.85 39.9 1.78 37.6 0.7 35.35-0.3L35.35-0.3Q34.1 1.1 32.75 1.88 31.4 2.65 29.8 2.65L29.8 2.65Q28.2 2.65 27.07 1.9 25.95 1.15 25.37 0.13 24.8-0.9 24.8-1.7L24.8-1.7Q24.8-2.6 25.62-3.25 26.45-3.9 28.45-3.9L28.45-3.9Q29.75-3.9 31.32-3.6 32.9-3.3 34.6-2.85L34.6-2.85Q35.8-4.95 36.82-7.75 37.85-10.55 38.85-13.7 39.85-16.85 40.85-20L40.85-20Q38.55-20.75 37.22-22.2 35.9-23.65 35.9-25.35L35.9-25.35Q35.9-26.25 36.27-27.15 36.65-28.05 37.35-28.68 38.05-29.3 39-29.3L39-29.3Q38.65-28.8 38.5-27.85 38.35-26.9 38.35-26.2L38.35-26.2Q38.35-24.3 39.15-23.03 39.95-21.75 41.2-21.05L41.2-21.05Q42.2-24.05 43.27-26.73 44.35-29.4 45.65-31.5 46.95-33.6 48.5-34.8 50.05-36 51.95-36L51.95-36Q52.95-36 54.07-35.55 55.2-35.1 56-34 56.8-32.9 56.8-30.9L56.8-30.9Q56.8-29.2 56.1-27.23 55.4-25.25 53.95-23.48 52.5-21.7 50.25-20.58 48-19.45 44.95-19.4L44.95-19.4Q44.9-19.4 44.72-19.4 44.55-19.4 44-19.4L44-19.4Q43-16.35 41.87-13.2 40.75-10.05 39.5-7.23 38.25-4.4 36.8-2.2L36.8-2.2Q39.1-1.5 41.45-0.78 43.8-0.05 46 0.43 48.2 0.9 50.05 0.9L50.05 0.9Q51.1 0.9 51.95 0.7 52.8 0.5 53.6 0.1L53.6 0.1Q52.8 2.4 51.47 3.38 50.15 4.35 48.35 4.35ZM29.6 1.2L29.6 1.2Q30.7 1.2 31.67 0.6 32.65 0 33.45-1.1L33.45-1.1Q31.9-1.75 30.42-2.18 28.95-2.6 27.75-2.6L27.75-2.6Q26.8-2.6 26.45-2.35 26.1-2.1 26.1-1.65L26.1-1.65Q26.1-0.8 27.07 0.2 28.05 1.2 29.6 1.2ZM44.3-20.35L44.3-20.35Q46.55-20.35 48.37-21.63 50.2-22.9 51.47-24.83 52.75-26.75 53.42-28.75 54.1-30.75 54.1-32.25L54.1-32.25Q54.1-33.7 53.55-34.23 53-34.75 52.3-34.75L52.3-34.75Q50.75-34.75 49.4-32.75 48.05-30.75 46.82-27.48 45.6-24.2 44.3-20.35Z" opacity="1" transform="matrix(1,0,0,1,0,0)" fill="#a73b75" class="undefined-text-0" data-fill-palette-color="primary" id="text-0"></path></svg></g></svg></g></svg></g></svg></g><g></g></svg></g></svg></g></svg></g><g mask="url(#59622ead-45f2-4fa1-ae54-ac72f10b7655)"><g transform="matrix(2.655758475360872, 0, 0, 2.655758475360872, 70.82618467875098, 1)"><svg xmlns="http://www.w3.org/2000/svg" xmlns:xlink="http://www.w3.org/1999/xlink" version="1.1" x="0" y="0" viewBox="2.203896421205796 3.8362905445352076 95.59138490860008 92.3276729698402" enable-background="new 0 0 100 100" xml:space="preserve" height="92.3276729698402" width="95.59138490860008" class="icon-none" data-fill-palette-color="accent" id="none"><path d="M97.526 49.638c-10.243-8.856-20.976-10.341-33.854-8.693 5.19-7.279 8.958-16.035 5.383-25.22-1.337-3.426-2.888-6.921-5.644-9.493 0 0-2.521-2.356-2.524-2.359-0.566-0.527-7.342 4.785-8.031 5.368-2.619 2.231-4.889 4.855-6.778 7.728-2.892 4.393-4.021 8.561-4.949 13.596-3.411-4.181-5.991-8.365-11.068-10.776-9.783-4.645-18.632-3.302-27.613 2.042-1.672 0.997 5.754 14.164 6.839 15.493 3.463 4.241 8.714 7.605 13.739 9.713 0 0 4.148 1.622 4.203 1.644-2.041-0.8-8.167 2.475-9.913 3.437-4.455 2.46-9.193 7.98-11.014 12.697-0.637 1.651-2.523 16.359-0.334 16.656 3.04 0.411 5.759 0.876 8.87 0.508 7.949-0.945 14.296-3.292 19.911-9.048 0 0 2.91-2.98 2.918-2.987-0.645 0.66 1.532 8.595 1.793 9.595 1.198 4.562 6.208 10.317 10.074 12.852 4.521 2.964 9.981 3.417 15.231 3.772 2.074 0.141 2.914-15.238 2.808-16.774-0.395-5.52-2.426-9.832-5.126-14.527 0.681 1.188 6.754 1.876 8.112 2.073 2.641 0.383 5.298 0.368 7.899-0.276 4.688-1.166 11.096-5.942 14.665-9.204C93.836 56.804 99.021 50.935 97.526 49.638zM80.962 58.212c-2.893 2.55-7.06 4.525-10.855 5.232-2.088 0.389-7.466-0.034-10.689-1.549 2.781 5.01 2.194 10.754 1.218 16.371-0.116 0.66-1.415 6.34-2.494 6.248-6.061-0.517-11.73-3.873-15.32-8.772-1.181-1.611-3.835-9.045-3.606-11.625-6.339 7.568-22.95 8.551-23.663 7.14-1.587-3.136 3.306-12.608 3.914-13.506 1.511-2.235 3.416-4.174 5.62-5.729 0.959-0.678 5.661-4.019 6.797-3.542-6.688-2.799-12.815-6.013-15.781-13.121-0.361-0.863-2.657-8.04-1.589-8.663 6.191-3.542 11.779-3.431 18.118-0.287 3.967 1.965 6.834 5.58 9.461 8.918 0.943-4.674 3.304-9.332 6.703-12.832 1.353-1.391 10.213-6.908 12.091-5.1 2.631 2.537 4.092 8.861 3.903 12.366-0.235 4.425-2.224 10.135-4.821 13.648 10.166-1.127 17.819-0.051 25.767 7.058C86.962 51.568 81.647 57.607 80.962 58.212z" fill="#fcb4de" data-fill-palette-color="accent"></path></svg></g></g><mask id="59622ead-45f2-4fa1-ae54-ac72f10b7655"><rect width="640" height="400" fill="white"></rect><g transform="matrix(1,0,0,1,136.09051742344246,80.34)"><svg viewBox="0 0 123.33896515311508 86.52" height="86.52" width="123.33896515311508"><g><svg viewBox="0 0 123.33896515311508 86.52" height="86.52" width="123.33896515311508"><g><svg viewBox="0 0 123.33896515311508 86.52" height="86.52" width="123.33896515311508"><g><svg viewBox="0 0 123.33896515311508 86.52" height="86.52" width="123.33896515311508"><g id="SvgjsG1019"><svg viewBox="0 0 123.33896515311508 86.52" height="86.52" width="123.33896515311508" id="SvgjsSvg1018"><g><svg viewBox="0 0 123.33896515311508 86.52" height="86.52" width="123.33896515311508"><g transform="matrix(1,0,0,1,0,0)"><svg width="123.33896515311508" viewBox="-7.7 -40 68.5 48.35000000000001" height="86.52" data-palette-color="#a73b75"><path d="M19.85 4.35L19.85 4.35Q18.05 4.35 15.88 3.6 13.7 2.85 11.4 1.78 9.1 0.7 6.85-0.3L6.85-0.3Q5.6 1.1 4.25 1.88 2.9 2.65 1.3 2.65L1.3 2.65Q-0.3 2.65-1.43 1.9-2.55 1.15-3.13 0.13-3.7-0.9-3.7-1.7L-3.7-1.7Q-3.7-2.6-2.88-3.25-2.05-3.9-0.05-3.9L-0.05-3.9Q1.25-3.9 2.83-3.6 4.4-3.3 6.1-2.85L6.1-2.85Q7.3-4.95 8.33-7.75 9.35-10.55 10.35-13.7 11.35-16.85 12.35-20L12.35-20Q10.05-20.75 8.72-22.2 7.4-23.65 7.4-25.35L7.4-25.35Q7.4-26.25 7.78-27.15 8.15-28.05 8.85-28.68 9.55-29.3 10.5-29.3L10.5-29.3Q10.15-28.8 10-27.85 9.85-26.9 9.85-26.2L9.85-26.2Q9.85-24.3 10.65-23.03 11.45-21.75 12.7-21.05L12.7-21.05Q13.7-24.05 14.78-26.73 15.85-29.4 17.15-31.5 18.45-33.6 20-34.8 21.55-36 23.45-36L23.45-36Q24.45-36 25.58-35.55 26.7-35.1 27.5-34 28.3-32.9 28.3-30.9L28.3-30.9Q28.3-29.2 27.6-27.23 26.9-25.25 25.45-23.48 24-21.7 21.75-20.58 19.5-19.45 16.45-19.4L16.45-19.4Q16.4-19.4 16.23-19.4 16.05-19.4 15.5-19.4L15.5-19.4Q14.5-16.35 13.38-13.2 12.25-10.05 11-7.23 9.75-4.4 8.3-2.2L8.3-2.2Q10.6-1.5 12.95-0.78 15.3-0.05 17.5 0.43 19.7 0.9 21.55 0.9L21.55 0.9Q22.6 0.9 23.45 0.7 24.3 0.5 25.1 0.1L25.1 0.1Q24.3 2.4 22.98 3.38 21.65 4.35 19.85 4.35ZM1.1 1.2L1.1 1.2Q2.2 1.2 3.18 0.6 4.15 0 4.95-1.1L4.95-1.1Q3.4-1.75 1.93-2.18 0.45-2.6-0.75-2.6L-0.75-2.6Q-1.7-2.6-2.05-2.35-2.4-2.1-2.4-1.65L-2.4-1.65Q-2.4-0.8-1.43 0.2-0.45 1.2 1.1 1.2ZM15.8-20.35L15.8-20.35Q18.05-20.35 19.88-21.63 21.7-22.9 22.98-24.83 24.25-26.75 24.93-28.75 25.6-30.75 25.6-32.25L25.6-32.25Q25.6-33.7 25.05-34.23 24.5-34.75 23.8-34.75L23.8-34.75Q22.25-34.75 20.9-32.75 19.55-30.75 18.32-27.48 17.1-24.2 15.8-20.35ZM48.35 4.35L48.35 4.35Q46.55 4.35 44.37 3.6 42.2 2.85 39.9 1.78 37.6 0.7 35.35-0.3L35.35-0.3Q34.1 1.1 32.75 1.88 31.4 2.65 29.8 2.65L29.8 2.65Q28.2 2.65 27.07 1.9 25.95 1.15 25.37 0.13 24.8-0.9 24.8-1.7L24.8-1.7Q24.8-2.6 25.62-3.25 26.45-3.9 28.45-3.9L28.45-3.9Q29.75-3.9 31.32-3.6 32.9-3.3 34.6-2.85L34.6-2.85Q35.8-4.95 36.82-7.75 37.85-10.55 38.85-13.7 39.85-16.85 40.85-20L40.85-20Q38.55-20.75 37.22-22.2 35.9-23.65 35.9-25.35L35.9-25.35Q35.9-26.25 36.27-27.15 36.65-28.05 37.35-28.68 38.05-29.3 39-29.3L39-29.3Q38.65-28.8 38.5-27.85 38.35-26.9 38.35-26.2L38.35-26.2Q38.35-24.3 39.15-23.03 39.95-21.75 41.2-21.05L41.2-21.05Q42.2-24.05 43.27-26.73 44.35-29.4 45.65-31.5 46.95-33.6 48.5-34.8 50.05-36 51.95-36L51.95-36Q52.95-36 54.07-35.55 55.2-35.1 56-34 56.8-32.9 56.8-30.9L56.8-30.9Q56.8-29.2 56.1-27.23 55.4-25.25 53.95-23.48 52.5-21.7 50.25-20.58 48-19.45 44.95-19.4L44.95-19.4Q44.9-19.4 44.72-19.4 44.55-19.4 44-19.4L44-19.4Q43-16.35 41.87-13.2 40.75-10.05 39.5-7.23 38.25-4.4 36.8-2.2L36.8-2.2Q39.1-1.5 41.45-0.78 43.8-0.05 46 0.43 48.2 0.9 50.05 0.9L50.05 0.9Q51.1 0.9 51.95 0.7 52.8 0.5 53.6 0.1L53.6 0.1Q52.8 2.4 51.47 3.38 50.15 4.35 48.35 4.35ZM29.6 1.2L29.6 1.2Q30.7 1.2 31.67 0.6 32.65 0 33.45-1.1L33.45-1.1Q31.9-1.75 30.42-2.18 28.95-2.6 27.75-2.6L27.75-2.6Q26.8-2.6 26.45-2.35 26.1-2.1 26.1-1.65L26.1-1.65Q26.1-0.8 27.07 0.2 28.05 1.2 29.6 1.2ZM44.3-20.35L44.3-20.35Q46.55-20.35 48.37-21.63 50.2-22.9 51.47-24.83 52.75-26.75 53.42-28.75 54.1-30.75 54.1-32.25L54.1-32.25Q54.1-33.7 53.55-34.23 53-34.75 52.3-34.75L52.3-34.75Q50.75-34.75 49.4-32.75 48.05-30.75 46.82-27.48 45.6-24.2 44.3-20.35Z" opacity="1" transform="matrix(1,0,0,1,0,0)" fill="#a73b75" class="undefined-text-0" data-fill-palette-color="primary" id="SvgjsPath1017" stroke-width="7" stroke="black" stroke-linejoin="round"></path></svg></g></svg></g></svg></g></svg></g><g></g></svg></g></svg></g></svg></g></mask></svg></g><defs></defs></svg><rect width="395.52" height="247.2" fill="none" stroke="none" visibility="hidden"></rect></g></svg></g></svg>