<svg width="80" height="80" viewBox="0 0 80 80" fill="none" xmlns="http://www.w3.org/2000/svg">
<mask id="mask0_907_153" style="mask-type:alpha" maskUnits="userSpaceOnUse" x="0" y="0" width="80" height="80">
<rect width="80" height="80" fill="white"/>
</mask>
<g mask="url(#mask0_907_153)">
<path d="M53.2537 63.9584C50.5664 52.6716 39.817 44.0722 39.817 44.0722C39.817 44.0722 25.843 56.4339 25.843 67.1832C25.843 77.9325 27.4554 80.0824 32.2925 80.0824C37.1297 80.0824 39.817 77.395 39.817 77.395C39.817 77.395 41.4295 80.0824 47.879 80.0824C54.3286 80.0824 55.941 75.2452 53.2537 63.9584Z" fill="url(#paint0_linear_907_153)"/>
<path d="M27.0867 16.124C29.774 27.4107 40.5234 36.0102 40.5234 36.0102C40.5234 36.0102 54.4974 23.6485 54.4974 12.8992C54.4974 2.14986 52.885 0 48.0479 0C43.2107 0 40.5234 2.68733 40.5234 2.68733C40.5234 2.68733 38.9109 0 32.4613 0C26.0118 0 24.3994 4.83719 27.0867 16.124Z" fill="url(#paint1_linear_907_153)"/>
<path d="M67.5196 41.1183C56.4013 37.8022 43.5793 42.8117 43.5793 42.8117C43.5793 42.8117 47.2978 61.0944 56.607 66.4691C65.9162 71.8438 68.5842 71.5223 71.0028 67.3332C73.4214 63.1441 72.4377 59.4731 72.4377 59.4731C72.4377 59.4731 75.5713 59.4204 78.796 53.8349C82.0208 48.2494 78.6379 44.4344 67.5196 41.1183Z" fill="url(#paint2_linear_907_153)"/>
<path d="M26.6388 62.7047C35.0698 54.734 37.1425 41.125 37.1425 41.125C37.1425 41.125 19.4499 35.204 10.1407 40.5787C0.831504 45.9533 -0.224133 48.4246 2.19445 52.6137C4.61304 56.8028 8.284 57.7865 8.284 57.7865C8.284 57.7865 6.76292 60.5265 9.98772 66.1121C13.2125 71.6976 18.2078 70.6753 26.6388 62.7047Z" fill="url(#paint3_linear_907_153)"/>
<path d="M54.4361 16.6636C46.0051 24.6343 43.9325 38.2432 43.9325 38.2432C43.9325 38.2432 61.6251 44.1643 70.9342 38.7896C80.2434 33.415 81.2991 30.9436 78.8805 26.7545C76.4619 22.5654 72.7909 21.5818 72.7909 21.5818C72.7909 21.5818 74.312 18.8417 71.0872 13.2562C67.8624 7.6707 62.8671 8.69293 54.4361 16.6636Z" fill="url(#paint4_linear_907_153)"/>
<path d="M12.4804 38.25C23.5987 41.5661 36.4207 36.5566 36.4207 36.5566C36.4207 36.5566 32.7022 18.2739 23.393 12.8992C14.0838 7.52452 11.4158 7.84597 8.9972 12.0351C6.57862 16.2242 7.56224 19.8952 7.56224 19.8952C7.56224 19.8952 4.42873 19.9479 1.20393 25.5334C-2.02086 31.1189 1.36208 34.9339 12.4804 38.25Z" fill="url(#paint5_linear_907_153)"/>
<circle cx="31.8682" cy="45.628" r="3.53596" fill="url(#paint6_radial_907_153)"/>
<circle cx="46.0121" cy="45.628" r="3.53596" fill="url(#paint7_radial_907_153)"/>
<circle cx="43.1833" cy="48.4567" r="3.53596" fill="url(#paint8_radial_907_153)"/>
<circle cx="38.9401" cy="35.7273" r="3.53596" fill="url(#paint9_radial_907_153)"/>
<circle cx="50.2552" cy="41.3849" r="3.53596" fill="url(#paint10_radial_907_153)"/>
<circle cx="38.9401" cy="31.4842" r="3.53596" fill="url(#paint11_radial_907_153)"/>
<circle cx="43.1833" cy="31.4842" r="3.53596" fill="url(#paint12_radial_907_153)"/>
<circle cx="47.4264" cy="32.8986" r="3.53596" fill="url(#paint13_radial_907_153)"/>
<circle cx="50.2552" cy="37.1417" r="3.53596" fill="url(#paint14_radial_907_153)"/>
<circle cx="43.1833" cy="34.313" r="3.53596" fill="url(#paint15_radial_907_153)"/>
<circle cx="43.353" cy="49.758" r="3.53596" fill="url(#paint16_radial_907_153)"/>
<circle cx="30.4538" cy="41.3849" r="3.53596" fill="url(#paint17_radial_907_153)"/>
<circle cx="34.697" cy="32.8986" r="3.53596" fill="url(#paint18_radial_907_153)"/>
<circle cx="31.8682" cy="37.1417" r="3.53596" fill="url(#paint19_radial_907_153)"/>
<circle cx="47.4264" cy="37.1417" r="3.53596" fill="url(#paint20_radial_907_153)"/>
<circle cx="46.0121" cy="39.9705" r="3.53596" fill="url(#paint21_radial_907_153)"/>
<circle cx="38.9401" cy="49.8712" r="3.53596" fill="url(#paint22_radial_907_153)"/>
<circle cx="31.8682" cy="41.3849" r="3.53596" fill="url(#paint23_radial_907_153)"/>
<circle cx="41.7689" cy="37.1417" r="3.53596" fill="url(#paint24_radial_907_153)"/>
<circle cx="34.697" cy="48.4567" r="3.53596" fill="url(#paint25_radial_907_153)"/>
<circle cx="44.5977" cy="42.7992" r="3.53596" fill="url(#paint26_radial_907_153)"/>
<circle cx="34.697" cy="37.1417" r="3.53596" fill="url(#paint27_radial_907_153)"/>
<circle cx="34.697" cy="44.2136" r="3.53596" fill="url(#paint28_radial_907_153)"/>
<circle cx="47.4264" cy="48.4567" r="3.53596" fill="url(#paint29_radial_907_153)"/>
<circle cx="38.9401" cy="41.3849" r="3.53596" fill="url(#paint30_radial_907_153)"/>
<circle cx="34.697" cy="39.9705" r="3.53596" fill="url(#paint31_radial_907_153)"/>
<circle cx="38.9401" cy="45.628" r="3.53596" fill="url(#paint32_radial_907_153)"/>
<circle cx="50.2552" cy="45.628" r="3.53596" fill="url(#paint33_radial_907_153)"/>
</g>
<defs>
<linearGradient id="paint0_linear_907_153" x1="40.5233" y1="80.0824" x2="40.1702" y2="44.0722" gradientUnits="userSpaceOnUse">
<stop stop-color="#FCB4DE"/>
<stop offset="0.578125" stop-color="#CE72A5"/>
<stop offset="1" stop-color="#A73B75"/>
</linearGradient>
<linearGradient id="paint1_linear_907_153" x1="39.8171" y1="1.49746e-09" x2="40.1702" y2="36.0102" gradientUnits="userSpaceOnUse">
<stop stop-color="#FCB4DE"/>
<stop offset="0.645833" stop-color="#CE72A5"/>
<stop offset="1" stop-color="#A73B75"/>
</linearGradient>
<linearGradient id="paint2_linear_907_153" x1="75.1182" y1="60.2051" x2="43.7559" y2="42.5058" gradientUnits="userSpaceOnUse">
<stop stop-color="#FCB4DE"/>
<stop offset="0.671875" stop-color="#CE72A5"/>
<stop offset="1" stop-color="#A73B75"/>
</linearGradient>
<linearGradient id="paint3_linear_907_153" x1="6.30986" y1="59.7418" x2="37.319" y2="41.4309" gradientUnits="userSpaceOnUse">
<stop stop-color="#FCB4DE"/>
<stop offset="0.572917" stop-color="#CE72A5"/>
<stop offset="1" stop-color="#A73B75"/>
</linearGradient>
<linearGradient id="paint4_linear_907_153" x1="74.7651" y1="19.6264" x2="43.7559" y2="37.9374" gradientUnits="userSpaceOnUse">
<stop stop-color="#FCB4DE"/>
<stop offset="0.5" stop-color="#CE72A5"/>
<stop offset="1" stop-color="#A73B75"/>
</linearGradient>
<linearGradient id="paint5_linear_907_153" x1="4.88179" y1="19.1632" x2="36.2441" y2="36.8625" gradientUnits="userSpaceOnUse">
<stop stop-color="#FCB4DE"/>
<stop offset="0.625" stop-color="#CE72A5"/>
<stop offset="1" stop-color="#A73B75"/>
</linearGradient>
<radialGradient id="paint6_radial_907_153" cx="0" cy="0" r="1" gradientUnits="userSpaceOnUse" gradientTransform="translate(31.8682 45.628) rotate(90) scale(3.53596)">
<stop stop-color="#C27C10"/>
<stop offset="1" stop-color="#FDC13A"/>
</radialGradient>
<radialGradient id="paint7_radial_907_153" cx="0" cy="0" r="1" gradientUnits="userSpaceOnUse" gradientTransform="translate(46.0121 45.628) rotate(90) scale(3.53596)">
<stop stop-color="#C27C10"/>
<stop offset="1" stop-color="#FDC13A"/>
</radialGradient>
<radialGradient id="paint8_radial_907_153" cx="0" cy="0" r="1" gradientUnits="userSpaceOnUse" gradientTransform="translate(43.1833 48.4567) rotate(90) scale(3.53596)">
<stop stop-color="#C27C10"/>
<stop offset="1" stop-color="#FDC13A"/>
</radialGradient>
<radialGradient id="paint9_radial_907_153" cx="0" cy="0" r="1" gradientUnits="userSpaceOnUse" gradientTransform="translate(38.9401 35.7273) rotate(90) scale(3.53596)">
<stop stop-color="#C27C10"/>
<stop offset="1" stop-color="#FDC13A"/>
</radialGradient>
<radialGradient id="paint10_radial_907_153" cx="0" cy="0" r="1" gradientUnits="userSpaceOnUse" gradientTransform="translate(50.2552 41.3849) rotate(90) scale(3.53596)">
<stop stop-color="#C27C10"/>
<stop offset="1" stop-color="#FDC13A"/>
</radialGradient>
<radialGradient id="paint11_radial_907_153" cx="0" cy="0" r="1" gradientUnits="userSpaceOnUse" gradientTransform="translate(38.9401 31.4842) rotate(90) scale(3.53596)">
<stop stop-color="#C27C10"/>
<stop offset="1" stop-color="#FDC13A"/>
</radialGradient>
<radialGradient id="paint12_radial_907_153" cx="0" cy="0" r="1" gradientUnits="userSpaceOnUse" gradientTransform="translate(43.1833 31.4842) rotate(90) scale(3.53596)">
<stop stop-color="#C27C10"/>
<stop offset="1" stop-color="#FDC13A"/>
</radialGradient>
<radialGradient id="paint13_radial_907_153" cx="0" cy="0" r="1" gradientUnits="userSpaceOnUse" gradientTransform="translate(47.4264 32.8986) rotate(90) scale(3.53596)">
<stop stop-color="#C27C10"/>
<stop offset="1" stop-color="#FDC13A"/>
</radialGradient>
<radialGradient id="paint14_radial_907_153" cx="0" cy="0" r="1" gradientUnits="userSpaceOnUse" gradientTransform="translate(50.2552 37.1417) rotate(90) scale(3.53596)">
<stop stop-color="#C27C10"/>
<stop offset="1" stop-color="#FDC13A"/>
</radialGradient>
<radialGradient id="paint15_radial_907_153" cx="0" cy="0" r="1" gradientUnits="userSpaceOnUse" gradientTransform="translate(43.1833 34.313) rotate(90) scale(3.53596)">
<stop stop-color="#C27C10"/>
<stop offset="1" stop-color="#FDC13A"/>
</radialGradient>
<radialGradient id="paint16_radial_907_153" cx="0" cy="0" r="1" gradientUnits="userSpaceOnUse" gradientTransform="translate(43.353 49.758) rotate(90) scale(3.53596)">
<stop stop-color="#C27C10"/>
<stop offset="1" stop-color="#FDC13A"/>
</radialGradient>
<radialGradient id="paint17_radial_907_153" cx="0" cy="0" r="1" gradientUnits="userSpaceOnUse" gradientTransform="translate(30.4538 41.3849) rotate(90) scale(3.53596)">
<stop stop-color="#C27C10"/>
<stop offset="1" stop-color="#FDC13A"/>
</radialGradient>
<radialGradient id="paint18_radial_907_153" cx="0" cy="0" r="1" gradientUnits="userSpaceOnUse" gradientTransform="translate(34.697 32.8986) rotate(90) scale(3.53596)">
<stop stop-color="#C27C10"/>
<stop offset="1" stop-color="#FDC13A"/>
</radialGradient>
<radialGradient id="paint19_radial_907_153" cx="0" cy="0" r="1" gradientUnits="userSpaceOnUse" gradientTransform="translate(31.8682 37.1417) rotate(90) scale(3.53596)">
<stop stop-color="#C27C10"/>
<stop offset="1" stop-color="#FDC13A"/>
</radialGradient>
<radialGradient id="paint20_radial_907_153" cx="0" cy="0" r="1" gradientUnits="userSpaceOnUse" gradientTransform="translate(47.4264 37.1417) rotate(90) scale(3.53596)">
<stop stop-color="#C27C10"/>
<stop offset="1" stop-color="#FDC13A"/>
</radialGradient>
<radialGradient id="paint21_radial_907_153" cx="0" cy="0" r="1" gradientUnits="userSpaceOnUse" gradientTransform="translate(46.0121 39.9705) rotate(90) scale(3.53596)">
<stop stop-color="#C27C10"/>
<stop offset="1" stop-color="#FDC13A"/>
</radialGradient>
<radialGradient id="paint22_radial_907_153" cx="0" cy="0" r="1" gradientUnits="userSpaceOnUse" gradientTransform="translate(38.9401 49.8712) rotate(90) scale(3.53596)">
<stop stop-color="#C27C10"/>
<stop offset="1" stop-color="#FDC13A"/>
</radialGradient>
<radialGradient id="paint23_radial_907_153" cx="0" cy="0" r="1" gradientUnits="userSpaceOnUse" gradientTransform="translate(31.8682 41.3849) rotate(90) scale(3.53596)">
<stop stop-color="#C27C10"/>
<stop offset="1" stop-color="#FDC13A"/>
</radialGradient>
<radialGradient id="paint24_radial_907_153" cx="0" cy="0" r="1" gradientUnits="userSpaceOnUse" gradientTransform="translate(41.7689 37.1417) rotate(90) scale(3.53596)">
<stop stop-color="#C27C10"/>
<stop offset="1" stop-color="#FDC13A"/>
</radialGradient>
<radialGradient id="paint25_radial_907_153" cx="0" cy="0" r="1" gradientUnits="userSpaceOnUse" gradientTransform="translate(34.697 48.4567) rotate(90) scale(3.53596)">
<stop stop-color="#C27C10"/>
<stop offset="1" stop-color="#FDC13A"/>
</radialGradient>
<radialGradient id="paint26_radial_907_153" cx="0" cy="0" r="1" gradientUnits="userSpaceOnUse" gradientTransform="translate(44.5977 42.7992) rotate(90) scale(3.53596)">
<stop stop-color="#C27C10"/>
<stop offset="1" stop-color="#FDC13A"/>
</radialGradient>
<radialGradient id="paint27_radial_907_153" cx="0" cy="0" r="1" gradientUnits="userSpaceOnUse" gradientTransform="translate(34.697 37.1417) rotate(90) scale(3.53596)">
<stop stop-color="#C27C10"/>
<stop offset="1" stop-color="#FDC13A"/>
</radialGradient>
<radialGradient id="paint28_radial_907_153" cx="0" cy="0" r="1" gradientUnits="userSpaceOnUse" gradientTransform="translate(34.697 44.2136) rotate(90) scale(3.53596)">
<stop stop-color="#C27C10"/>
<stop offset="1" stop-color="#FDC13A"/>
</radialGradient>
<radialGradient id="paint29_radial_907_153" cx="0" cy="0" r="1" gradientUnits="userSpaceOnUse" gradientTransform="translate(47.4264 48.4567) rotate(90) scale(3.53596)">
<stop stop-color="#C27C10"/>
<stop offset="1" stop-color="#FDC13A"/>
</radialGradient>
<radialGradient id="paint30_radial_907_153" cx="0" cy="0" r="1" gradientUnits="userSpaceOnUse" gradientTransform="translate(38.9401 41.3849) rotate(90) scale(3.53596)">
<stop stop-color="#C27C10"/>
<stop offset="1" stop-color="#FDC13A"/>
</radialGradient>
<radialGradient id="paint31_radial_907_153" cx="0" cy="0" r="1" gradientUnits="userSpaceOnUse" gradientTransform="translate(34.697 39.9705) rotate(90) scale(3.53596)">
<stop stop-color="#C27C10"/>
<stop offset="1" stop-color="#FDC13A"/>
</radialGradient>
<radialGradient id="paint32_radial_907_153" cx="0" cy="0" r="1" gradientUnits="userSpaceOnUse" gradientTransform="translate(38.9401 45.628) rotate(90) scale(3.53596)">
<stop stop-color="#C27C10"/>
<stop offset="1" stop-color="#FDC13A"/>
</radialGradient>
<radialGradient id="paint33_radial_907_153" cx="0" cy="0" r="1" gradientUnits="userSpaceOnUse" gradientTransform="translate(50.2552 45.628) rotate(90) scale(3.53596)">
<stop stop-color="#C27C10"/>
<stop offset="1" stop-color="#FDC13A"/>
</radialGradient>
</defs>
</svg>
