<svg width="80" height="80" viewBox="0 0 80 80" fill="none" xmlns="http://www.w3.org/2000/svg">
<mask id="mask0_907_148" style="mask-type:alpha" maskUnits="userSpaceOnUse" x="0" y="0" width="80" height="80">
<rect width="80" height="79.0244" fill="white"/>
</mask>
<g mask="url(#mask0_907_148)">
<path d="M55.3707 39.0548C55.3707 32.2233 76.0732 36.4886 79.2807 39.0548C75.3577 42.07 55.3707 45.8864 55.3707 39.0548Z" fill="#E8B130"/>
<path d="M40.5186 24.1415C33.687 24.1415 37.9523 3.43901 40.5186 0.231445C43.5337 4.15444 47.3501 24.1415 40.5186 24.1415Z" fill="#E8B130"/>
<path d="M53.1939 49.685C58.0245 44.8544 69.6473 62.5093 70.1008 66.592C65.1948 65.9501 48.3632 54.5157 53.1939 49.685Z" fill="#E8B130"/>
<path d="M30.0881 49.7783C34.9187 54.609 17.2638 66.2318 13.1811 66.6853C13.823 61.7792 25.2574 44.9477 30.0881 49.7783Z" fill="#E8B130"/>
<path d="M24.6293 39.1868C24.6293 46.0184 3.9268 41.753 0.719238 39.1868C4.64224 36.1716 24.6293 32.3552 24.6293 39.1868Z" fill="#E8B130"/>
<path d="M29.9948 26.6725C25.1641 31.5032 13.5413 13.8483 13.0878 9.76558C17.9939 10.4075 34.8254 21.8419 29.9948 26.6725Z" fill="#E8B130"/>
<path d="M40.6505 54.883C47.482 54.883 43.2167 75.5854 40.6505 78.793C37.6353 74.87 33.8189 54.883 40.6505 54.883Z" fill="#E8B130"/>
<path d="M51.1487 28.5311C46.3181 23.7005 63.973 12.0776 68.0557 11.6242C67.4138 16.5302 55.9794 33.3617 51.1487 28.5311Z" fill="#E8B130"/>
<path d="M54.7287 35.0922C52.9605 28.4934 74.0615 27.2552 77.824 28.9038C74.8151 32.8316 56.4968 41.691 54.7287 35.0922Z" fill="#F3C966"/>
<path d="M36.5227 24.531C29.9239 26.2991 28.6857 5.19814 30.3343 1.43568C34.2621 4.44462 43.1215 22.7629 36.5227 24.531Z" fill="#F3C966"/>
<path d="M55.3772 45.9236C58.793 40.0073 74.5892 54.0524 76.0839 57.8786C71.1789 58.5283 51.9614 51.8399 55.3772 45.9236Z" fill="#F3C966"/>
<path d="M33.0829 51.9939C38.9992 55.4097 24.9541 71.2059 21.1279 72.7006C20.4782 67.7956 27.1666 48.5781 33.0829 51.9939Z" fill="#F3C966"/>
<path d="M25.0688 43.1761C26.8369 49.7749 5.73592 51.0131 1.97347 49.3645C4.9824 45.4367 23.3006 36.5773 25.0688 43.1761Z" fill="#F3C966"/>
<path d="M27.0126 29.6996C23.5968 35.6159 7.80059 21.5708 6.30588 17.7446C11.2109 17.0948 30.4284 23.7833 27.0126 29.6996Z" fill="#F3C966"/>
<path d="M44.6066 54.1909C51.2054 52.4227 52.4436 73.5237 50.795 77.2862C46.8672 74.2772 38.0078 55.959 44.6066 54.1909Z" fill="#F3C966"/>
<path d="M47.9268 26.0198C42.0105 22.604 56.0556 6.80776 59.8818 5.31305C60.5315 10.2181 53.8431 29.4355 47.9268 26.0198Z" fill="#F3C966"/>
<path d="M53.0828 31.4308C49.667 25.5145 69.7285 18.8571 73.7895 19.4758C71.8997 24.0485 56.4986 37.3471 53.0828 31.4308Z" fill="#F9DC9A"/>
<path d="M32.7637 25.9415C26.8474 29.3572 20.1901 9.29572 20.8087 5.23477C25.3814 7.12459 38.68 22.5257 32.7637 25.9415Z" fill="#F9DC9A"/>
<path d="M56.5127 41.7252C58.2808 35.1264 77.1739 44.6046 79.608 47.9136C75.0383 49.8107 54.7445 48.324 56.5127 41.7252Z" fill="#F9DC9A"/>
<path d="M36.5491 53.3589C43.1478 55.127 33.6697 74.0201 30.3607 76.4542C28.4636 71.8845 29.9503 51.5907 36.5491 53.3589Z" fill="#F9DC9A"/>
<path d="M26.5258 46.9157C29.9416 52.832 9.8801 59.4894 5.81915 58.8707C7.70897 54.298 23.1101 40.9994 26.5258 46.9157Z" fill="#F9DC9A"/>
<path d="M24.9154 33.3953C23.1473 39.9941 4.25416 30.5159 1.82008 27.2069C6.3898 25.3098 26.6835 26.7965 24.9154 33.3953Z" fill="#F9DC9A"/>
<path d="M48.2487 52.4984C54.165 49.0826 60.8224 69.1441 60.2038 73.2051C55.631 71.3153 42.3324 55.9142 48.2487 52.4984Z" fill="#F9DC9A"/>
<path d="M44.1646 24.4279C37.5658 22.6598 47.044 3.76667 50.3529 1.3326C52.25 5.90231 50.7633 26.1961 44.1646 24.4279Z" fill="#F9DC9A"/>
<circle cx="40.7319" cy="39.2682" r="18.5425" fill="url(#paint0_radial_907_148)"/>
</g>
<defs>
<radialGradient id="paint0_radial_907_148" cx="0" cy="0" r="1" gradientUnits="userSpaceOnUse" gradientTransform="translate(40.7319 39.2682) rotate(90) scale(18.5425)">
<stop stop-color="#50383E"/>
<stop offset="0.671875" stop-color="#93641C"/>
<stop offset="1" stop-color="#825862"/>
</radialGradient>
</defs>
</svg>
