<svg width="81" height="81" viewBox="0 0 81 81" fill="none" xmlns="http://www.w3.org/2000/svg">
<mask id="mask0_907_150" style="mask-type:alpha" maskUnits="userSpaceOnUse" x="0" y="0" width="81" height="81">
<rect width="80" height="80" transform="translate(0.75 0.5)" fill="white"/>
</mask>
<g mask="url(#mask0_907_150)">
<path d="M28.763 18.0002C29.1056 22.7964 27.05 27.2501 31.1611 31.3612C35.2722 35.4722 39.3833 38.5555 39.3833 38.5555C39.3833 38.5555 47.6054 34.7871 49.6609 33.4167C51.7165 32.0463 54.4572 29.3056 56.1701 27.2501C57.8831 25.1945 60.6238 22.4538 61.309 18.0002C61.9942 13.5465 58.9109 6.69472 58.9109 6.69472C54.1201 -1.1966 51.9055 1.59396 47.6054 1.21329C47.6054 1.21329 39.7259 1.21329 34.2444 4.98177C28.763 8.75026 28.4204 13.2039 28.763 18.0002Z" fill="url(#paint0_radial_907_150)"/>
<path d="M15.1731 43.8965C19.8405 45.0528 23.441 48.384 28.6213 45.7445C33.8015 43.105 38.0043 40.148 38.0043 40.148C38.0043 40.148 36.9611 31.1637 36.293 28.7853C35.6249 26.4069 33.8652 22.9534 32.4396 20.6891C31.014 18.4248 29.2544 14.9713 25.2304 12.9434C21.2064 10.9155 13.7372 11.7306 13.7372 11.7306C4.75171 13.8483 6.72133 16.8168 5.03049 20.7888C5.03049 20.7888 2.59557 28.2827 4.48576 34.6604C6.37595 41.0381 10.5058 42.7402 15.1731 43.8965Z" fill="url(#paint1_radial_907_150)"/>
<path d="M56.9256 22.9141C52.4699 24.7221 47.5991 24.1434 44.9596 29.3237C42.3201 34.5039 40.6581 39.3666 40.6581 39.3666C40.6581 39.3666 46.7829 46.0218 48.7214 47.5532C50.6599 49.0847 54.1134 50.8444 56.5977 51.8383C59.0819 52.8322 62.5354 54.5918 66.9829 53.8672C71.4303 53.1426 76.9939 48.0929 76.9939 48.0929C83.0186 41.0981 79.6803 39.8542 78.7135 35.6469C78.7135 35.6469 76.2786 28.153 71.0007 24.1044C65.7228 20.0558 61.3812 21.1062 56.9256 22.9141Z" fill="url(#paint2_radial_907_150)"/>
<path d="M61.5615 51.7486C58.4652 48.0697 57.5104 43.2584 51.768 42.3489C46.0257 41.4394 40.8874 41.3614 40.8874 41.3614C40.8874 41.3614 36.4506 49.243 35.5931 51.5599C34.7356 53.8767 34.1293 57.705 33.9517 60.3748C33.7741 63.0446 33.1678 66.8728 35.2313 70.8786C37.2948 74.8845 43.8166 78.6154 43.8166 78.6154C52.3308 82.1837 52.4822 78.6243 56.1848 76.4048C56.1848 76.4048 62.5595 71.7733 64.779 65.5026C66.9985 59.2319 64.6579 55.4275 61.5615 51.7486Z" fill="url(#paint3_radial_907_150)"/>
<path d="M32.0668 66.4277C34.6088 62.3461 38.8896 59.9512 37.9801 54.2088C37.0706 48.4665 35.557 43.5556 35.557 43.5556C35.557 43.5556 26.6901 41.7715 24.2216 41.672C21.7532 41.5724 17.925 42.1787 15.3309 42.8348C12.7369 43.491 8.90869 44.0973 5.73657 47.2976C2.56445 50.498 1.03151 57.8535 1.03151 57.8535C0.268898 67.0537 3.70082 66.0978 6.95592 68.9333C6.95592 68.9333 13.3306 73.5648 19.9802 73.7379C26.6299 73.911 29.5248 70.5093 32.0668 66.4277Z" fill="url(#paint4_radial_907_150)"/>
<circle cx="38.9523" cy="43.2069" r="8.21563" fill="url(#paint5_radial_907_150)"/>
</g>
<defs>
<radialGradient id="paint0_radial_907_150" cx="0" cy="0" r="1" gradientUnits="userSpaceOnUse" gradientTransform="translate(44.9771 19.7944) rotate(103.337) scale(18.9953 16.6364)">
<stop offset="0.510417" stop-color="#7545A5"/>
<stop offset="1" stop-color="#301C43"/>
</radialGradient>
<radialGradient id="paint1_radial_907_150" cx="0" cy="0" r="1" gradientUnits="userSpaceOnUse" gradientTransform="translate(21.89 29.0304) rotate(31.3366) scale(18.9953 16.6364)">
<stop offset="0.510417" stop-color="#7545A5"/>
<stop offset="1" stop-color="#301C43"/>
</radialGradient>
<radialGradient id="paint2_radial_907_150" cx="0" cy="0" r="1" gradientUnits="userSpaceOnUse" gradientTransform="translate(60.2296 38.8891) rotate(175.337) scale(18.9953 16.6364)">
<stop offset="0.510417" stop-color="#7545A5"/>
<stop offset="1" stop-color="#301C43"/>
</radialGradient>
<radialGradient id="paint3_radial_907_150" cx="0" cy="0" r="1" gradientUnits="userSpaceOnUse" gradientTransform="translate(47.3894 59.8274) rotate(-112.663) scale(18.9953 16.6364)">
<stop offset="0.510417" stop-color="#7545A5"/>
<stop offset="1" stop-color="#301C43"/>
</radialGradient>
<radialGradient id="paint4_radial_907_150" cx="0" cy="0" r="1" gradientUnits="userSpaceOnUse" gradientTransform="translate(20.004 55.4457) rotate(-40.6634) scale(18.9953 16.6364)">
<stop offset="0.510417" stop-color="#7545A5"/>
<stop offset="1" stop-color="#301C43"/>
</radialGradient>
<radialGradient id="paint5_radial_907_150" cx="0" cy="0" r="1" gradientUnits="userSpaceOnUse" gradientTransform="translate(38.9523 43.2069) rotate(90) scale(8.21563)">
<stop offset="0.59375" stop-color="#F9DC9A"/>
<stop offset="1" stop-color="#5E3785" stop-opacity="0.97"/>
</radialGradient>
</defs>
</svg>
